<svg id="mermaid-1622139921997" width="100%" xmlns="http://www.w3.org/2000/svg" xmlns:xlink="http://www.w3.org/1999/xlink" height="1153.5999755859375" style="max-width: 1721.199951171875px;" viewBox="-20 -20 1721.199951171875 1153.5999755859375"><style>#mermaid-1622139921997{font-family:"trebuchet ms",verdana,arial,sans-serif;font-size:16px;fill:#333;}#mermaid-1622139921997 .error-icon{fill:#552222;}#mermaid-1622139921997 .error-text{fill:#552222;stroke:#552222;}#mermaid-1622139921997 .edge-thickness-normal{stroke-width:2px;}#mermaid-1622139921997 .edge-thickness-thick{stroke-width:3.5px;}#mermaid-1622139921997 .edge-pattern-solid{stroke-dasharray:0;}#mermaid-1622139921997 .edge-pattern-dashed{stroke-dasharray:3;}#mermaid-1622139921997 .edge-pattern-dotted{stroke-dasharray:2;}#mermaid-1622139921997 .marker{fill:#333333;stroke:#333333;}#mermaid-1622139921997 .marker.cross{stroke:#333333;}#mermaid-1622139921997 svg{font-family:"trebuchet ms",verdana,arial,sans-serif;font-size:16px;}#mermaid-1622139921997 g.classGroup text{fill:#9370DB;fill:#131300;stroke:none;font-family:"trebuchet ms",verdana,arial,sans-serif;font-size:10px;}#mermaid-1622139921997 g.classGroup text .title{font-weight:bolder;}#mermaid-1622139921997 .classTitle{font-weight:bolder;}#mermaid-1622139921997 .node rect,#mermaid-1622139921997 .node circle,#mermaid-1622139921997 .node ellipse,#mermaid-1622139921997 .node polygon,#mermaid-1622139921997 .node path{fill:#ECECFF;stroke:#9370DB;stroke-width:1px;}#mermaid-1622139921997 .divider{stroke:#9370DB;stroke:1;}#mermaid-1622139921997 g.clickable{cursor:pointer;}#mermaid-1622139921997 g.classGroup rect{fill:#ECECFF;stroke:#9370DB;}#mermaid-1622139921997 g.classGroup line{stroke:#9370DB;stroke-width:1;}#mermaid-1622139921997 .classLabel .box{stroke:none;stroke-width:0;fill:#ECECFF;opacity:0.5;}#mermaid-1622139921997 .classLabel .label{fill:#9370DB;font-size:10px;}#mermaid-1622139921997 .relation{stroke:#333333;stroke-width:1;fill:none;}#mermaid-1622139921997 .dashed-line{stroke-dasharray:3;}#mermaid-1622139921997 #compositionStart,#mermaid-1622139921997 .composition{fill:#333333 !important;stroke:#333333 !important;stroke-width:1;}#mermaid-1622139921997 #compositionEnd,#mermaid-1622139921997 .composition{fill:#333333 !important;stroke:#333333 !important;stroke-width:1;}#mermaid-1622139921997 #dependencyStart,#mermaid-1622139921997 .dependency{fill:#333333 !important;stroke:#333333 !important;stroke-width:1;}#mermaid-1622139921997 #dependencyStart,#mermaid-1622139921997 .dependency{fill:#333333 !important;stroke:#333333 !important;stroke-width:1;}#mermaid-1622139921997 #extensionStart,#mermaid-1622139921997 .extension{fill:#333333 !important;stroke:#333333 !important;stroke-width:1;}#mermaid-1622139921997 #extensionEnd,#mermaid-1622139921997 .extension{fill:#333333 !important;stroke:#333333 !important;stroke-width:1;}#mermaid-1622139921997 #aggregationStart,#mermaid-1622139921997 .aggregation{fill:#ECECFF !important;stroke:#333333 !important;stroke-width:1;}#mermaid-1622139921997 #aggregationEnd,#mermaid-1622139921997 .aggregation{fill:#ECECFF !important;stroke:#333333 !important;stroke-width:1;}#mermaid-1622139921997 .edgeTerminals{font-size:11px;}#mermaid-1622139921997:root{--mermaid-font-family:"trebuchet ms",verdana,arial,sans-serif;}</style><g></g><defs><marker id="extensionStart" class="extension" refX="0" refY="7" markerWidth="190" markerHeight="240" orient="auto"><path d="M 1,7 L18,13 V 1 Z"></path></marker></defs><defs><marker id="extensionEnd" refX="19" refY="7" markerWidth="20" markerHeight="28" orient="auto"><path d="M 1,1 V 13 L18,7 Z"></path></marker></defs><defs><marker id="compositionStart" class="extension" refX="0" refY="7" markerWidth="190" markerHeight="240" orient="auto"><path d="M 18,7 L9,13 L1,7 L9,1 Z"></path></marker></defs><defs><marker id="compositionEnd" refX="19" refY="7" markerWidth="20" markerHeight="28" orient="auto"><path d="M 18,7 L9,13 L1,7 L9,1 Z"></path></marker></defs><defs><marker id="aggregationStart" class="extension" refX="0" refY="7" markerWidth="190" markerHeight="240" orient="auto"><path d="M 18,7 L9,13 L1,7 L9,1 Z"></path></marker></defs><defs><marker id="aggregationEnd" refX="19" refY="7" markerWidth="20" markerHeight="28" orient="auto"><path d="M 18,7 L9,13 L1,7 L9,1 Z"></path></marker></defs><defs><marker id="dependencyStart" class="extension" refX="0" refY="7" markerWidth="190" markerHeight="240" orient="auto"><path d="M 5,7 L9,13 L1,7 L9,1 Z"></path></marker></defs><defs><marker id="dependencyEnd" refX="19" refY="7" markerWidth="20" markerHeight="28" orient="auto"><path d="M 18,7 L9,13 L14,7 L9,1 Z"></path></marker></defs><g id="classid-Main-164" class="classGroup" transform="translate(71.39999914169312,0 )"><rect x="0" y="0" width="35.60000038146973" height="31.600000381469727" class=" "></rect><text y="15" x="0"><tspan class="title" x="6.19999885559082">Main</tspan></text><line x1="0" y1="22" y2="22" x2="35.599998474121094"></line><text x="5" y="32" fill="white" class="classText"></text><line x1="0" y1="27" y2="27" x2="35.599998474121094"></line><text x="5" y="42" fill="white" class="classText"></text></g><g id="classid-App-165" class="classGroup" transform="translate(73.3999981880188,161.30000019073486 )"><rect x="0" y="0" width="31.600000381469727" height="31.600000381469727" class=" "></rect><text y="15" x="0"><tspan class="title" x="6.199999809265137">App</tspan></text><line x1="0" y1="22" y2="22" x2="31.600000381469727"></line><text x="5" y="32" fill="white" class="classText"></text><line x1="0" y1="27" y2="27" x2="31.600000381469727"></line><text x="5" y="42" fill="white" class="classText"></text></g><g id="classid-MenuController-166" class="classGroup" transform="translate(176.39999771118164,477.6000003814697 )"><rect x="0" y="0" width="88.4000015258789" height="71" class=" "></rect><text y="15" x="0"><tspan class="title" x="6.200000762939453">MenuController</tspan></text><line x1="0" y1="22" y2="22" x2="88.4000015258789"></line><text x="5" y="32" fill="white" class="classText"><tspan x="5">-MenuView</tspan><tspan x="5" dy="10">-MenuModel</tspan></text><line x1="0" y1="49.00000190734863" y2="49.00000190734863" x2="88.4000015258789"></line><text x="5" y="64.00000190734863" fill="white" class="classText"><tspan x="5">+Run()</tspan></text></g><g id="classid-ExitMenuAction-167" class="classGroup" transform="translate(242.39999771118164,0 )"><rect x="0" y="0" width="88.4000015258789" height="31.600000381469727" class=" "></rect><text y="15" x="0"><tspan class="title" x="6.200000762939453">ExitMenuAction</tspan></text><line x1="0" y1="22" y2="22" x2="88.4000015258789"></line><text x="5" y="32" fill="white" class="classText"></text><line x1="0" y1="27" y2="27" x2="88.4000015258789"></line><text x="5" y="42" fill="white" class="classText"></text></g><g id="classid-MemberSubMenuMenuAction-168" class="classGroup" transform="translate(274.9999985694885,161.30000019073486 )"><rect x="0" y="0" width="154" height="31.600000381469727" class=" "></rect><text y="15" x="0"><tspan class="title" x="6.1999969482421875">MemberSubMenuMenuAction</tspan></text><line x1="0" y1="22" y2="22" x2="154"></line><text x="5" y="32" fill="white" class="classText"></text><line x1="0" y1="27" y2="27" x2="154"></line><text x="5" y="42" fill="white" class="classText"></text></g><g id="classid-MenuAction-169" class="classGroup" transform="translate(154.99999856948853,161.30000019073486 )"><rect x="0" y="0" width="70" height="31.600000381469727" class=" "></rect><text y="15" x="0"><tspan class="title" x="6.200000762939453">MenuAction</tspan></text><line x1="0" y1="22" y2="22" x2="70"></line><text x="5" y="32" fill="white" class="classText"></text><line x1="0" y1="27" y2="27" x2="70"></line><text x="5" y="42" fill="white" class="classText"></text></g><g id="classid-CreateMemberMenuAction-170" class="classGroup" transform="translate(749.1999878883362,0 )"><rect x="0" y="0" width="141.1999969482422" height="31.600000381469727" class=" "></rect><text y="15" x="0"><tspan class="title" x="6.1999969482421875">CreateMemberMenuAction</tspan></text><line x1="0" y1="22" y2="22" x2="141.1999969482422"></line><text x="5" y="32" fill="white" class="classText"></text><line x1="0" y1="27" y2="27" x2="141.1999969482422"></line><text x="5" y="42" fill="white" class="classText"></text></g><g id="classid-MemberController-171" class="classGroup" transform="translate(533.2499833106995,322.6000003814697 )"><rect x="0" y="0" width="370.20001220703125" height="381" class=" "></rect><text y="15" x="0"><tspan class="title" x="140.70000457763672">MemberController</tspan></text><line x1="0" y1="22" y2="22" x2="370.20001220703125"></line><text x="5" y="32" fill="white" class="classText"><tspan x="5">-MemberView</tspan><tspan x="5" dy="10">-MembershipController</tspan><tspan x="5" dy="10">-ArrayList&lt;MemberModel&gt;</tspan></text><line x1="0" y1="59" y2="59" x2="370.20001220703125"></line><text x="5" y="74" fill="white" class="classText"><tspan x="5">+createMember()</tspan><tspan x="5" dy="10">+addMember(id, name, mail, gender, birthday, phone, competitive, active)</tspan><tspan x="5" dy="10">-gendersToArray() : String[]</tspan><tspan x="5" dy="10">-renewExpiringMembers()</tspan><tspan x="5" dy="10">+requestPaymentForUnpaidMembers()</tspan><tspan x="5" dy="10">+removeMemberFromList(members)</tspan><tspan x="5" dy="10">+getMemberByID(id, members) : MenuModel</tspan><tspan x="5" dy="10">+getMemberByID(id) : MenuModel</tspan><tspan x="5" dy="10">+saveMembers()</tspan><tspan x="5" dy="10">+loadMembers() : MemberModel[]</tspan><tspan x="5" dy="10">+membersToStringArray(members)</tspan><tspan x="5" dy="10">-getMemberLine(member) : String[]</tspan><tspan x="5" dy="10">-getMemberHeader() : String[]</tspan><tspan x="5" dy="10">+viewTableMembers(member)</tspan><tspan x="5" dy="10">+viewTableMembers(members)</tspan><tspan x="5" dy="10">+viewTableMembers()</tspan><tspan x="5" dy="10">+getColumnWidth() : int[]</tspan><tspan x="5" dy="10">+searchMember()</tspan><tspan x="5" dy="10">+viewMemberById()</tspan><tspan x="5" dy="10">+getMemberById(id) : MemberModel</tspan><tspan x="5" dy="10">+viewMembersByName()</tspan><tspan x="5" dy="10">+getMembersByName(name)</tspan><tspan x="5" dy="10">+viewMembersByMail()</tspan><tspan x="5" dy="10">+getMembersByMail(mail)</tspan><tspan x="5" dy="10">+viewMemberByPhoneNumber()</tspan><tspan x="5" dy="10">+getMemberByPhoneNumber(phoneNumber)</tspan><tspan x="5" dy="10">+anonymizeMember()</tspan><tspan x="5" dy="10">+editMember()</tspan><tspan x="5" dy="10">+generateMemberId() : String</tspan><tspan x="5" dy="10">+getExpiringMembers(memberModels,days)</tspan><tspan x="5" dy="10">+getUnpaidMembers(ArrayList&lt;MemberModel&gt; memberModels)</tspan></text></g><g id="classid-MemberView-172" class="classGroup" transform="translate(494.84999322891235,824.6000003814697 )"><rect x="0" y="0" width="199.8000030517578" height="49" class=" "></rect><text y="15" x="0"><tspan class="title" x="68.70000076293945">MemberView</tspan></text><line x1="0" y1="22" y2="22" x2="199.8000030517578"></line><text x="5" y="32" fill="white" class="classText"></text><line x1="0" y1="27" y2="27" x2="199.8000030517578"></line><text x="5" y="42" fill="white" class="classText"><tspan x="5">displayMember(member, columnWidth)</tspan></text></g><g id="classid-MemberModel-173" class="classGroup" transform="translate(1101.1999878883362,753.6000003814697 )"><rect x="0" y="0" width="227" height="191" class=" "></rect><text y="15" x="0"><tspan class="title" x="79.5">MemberModel</tspan></text><line x1="0" y1="22" y2="22" x2="227"></line><text x="5" y="32" fill="white" class="classText"><tspan x="5">-id:String</tspan><tspan x="5" dy="10">-name:String</tspan><tspan x="5" dy="10">-Create_Date:LocalDate</tspan><tspan x="5" dy="10">-birthdate:LocalDate</tspan><tspan x="5" dy="10">-gender:GenderType</tspan><tspan x="5" dy="10">-phonenumber:String</tspan><tspan x="5" dy="10">-mail:String</tspan><tspan x="5" dy="10">-ageGroup:String</tspan><tspan x="5" dy="10">-competitive:boolean</tspan><tspan x="5" dy="10">-disciplines:ArrayList&lt;DisciplineModel&gt;</tspan><tspan x="5" dy="10">-memberships:ArrayList&lt;MembershipModel&gt;</tspan><tspan x="5" dy="10">-deleted:boolean</tspan></text><line x1="0" y1="148.99999237060547" y2="148.99999237060547" x2="227"></line><text x="5" y="163.99999237060547" fill="white" class="classText"><tspan x="5">+getAgeGroup() : String</tspan><tspan x="5" dy="10">+getLatestMembership() : MembershipModel</tspan><tspan x="5" dy="10">+getAge() : int</tspan></text></g><g id="classid-MembershipModel-174" class="classGroup" transform="translate(1062.9499878883362,1007.3000011444092 )"><rect x="0" y="0" width="135" height="93.5999984741211" class=" "></rect><text y="15" x="0"><tspan class="title" x="23.099998474121094">MembershipModel</tspan></text><line x1="0" y1="22" y2="22" x2="135"></line><text x="5" y="32" fill="white" class="classText"><tspan x="5">-id:String</tspan><tspan x="5" dy="10">-creationDate:LocalDate</tspan><tspan x="5" dy="10">-startingDate:LocalDate</tspan><tspan x="5" dy="10">-expirtingDate:LocalDate</tspan><tspan x="5" dy="10">-paid:boolean</tspan><tspan x="5" dy="10">-active:boolean</tspan></text><line x1="0" y1="89" y2="89" x2="135"></line><text x="5" y="104" fill="white" class="classText"></text></g><g id="classid-MembershipController-175" class="classGroup" transform="translate(953.4499955177307,468.6000003814697 )"><rect x="0" y="0" width="229.39999389648438" height="89" class=" "></rect><text y="15" x="0"><tspan class="title" x="59.89999771118164">MembershipController</tspan></text><line x1="0" y1="22" y2="22" x2="229.39999389648438"></line><text x="5" y="32" fill="white" class="classText"></text><line x1="0" y1="27" y2="27" x2="229.39999389648438"></line><text x="5" y="42" fill="white" class="classText"><tspan x="5">+addActiveMembership(member)</tspan><tspan x="5" dy="10">+addPassiveMembership(member)</tspan><tspan x="5" dy="10">-generateMembershipId(member) : String</tspan><tspan x="5" dy="10">+renewMembership(member, durationYears)</tspan><tspan x="5" dy="10">-createNewMembership() : MembershipModel</tspan></text></g><g id="classid-MenuView-176" class="classGroup" transform="translate(0,824.6000003814697 )"><rect x="0" y="0" width="207" height="49" class=" "></rect><text y="15" x="0"><tspan class="title" x="78.70000076293945">MenuView</tspan></text><line x1="0" y1="22" y2="22" x2="207"></line><text x="5" y="32" fill="white" class="classText"></text><line x1="0" y1="27" y2="27" x2="207"></line><text x="5" y="42" fill="white" class="classText"><tspan x="5">+printMenuOptions(header, menuAction)</tspan></text></g><g id="classid-MenuModel-177" class="classGroup" transform="translate(283.449999332428,817.3000011444092 )"><rect x="0" y="0" width="161.39999389648438" height="63.599998474121094" class=" "></rect><text y="15" x="0"><tspan class="title" x="53.09999656677246">MenuModel</tspan></text><line x1="0" y1="22" y2="22" x2="161.39999389648438"></line><text x="5" y="32" fill="white" class="classText"><tspan x="5">-MENU_ACTIONS:MenuAction[]</tspan><tspan x="5" dy="10">-MENU_HEADER:String</tspan><tspan x="5" dy="10">-LOAD_TEXT:String</tspan></text><line x1="0" y1="59" y2="59" x2="161.39999389648438"></line><text x="5" y="74" fill="white" class="classText"></text></g><g id="classid-InputModel-178" class="classGroup" transform="translate(1234.7999939918518,448.6000003814697 )"><rect x="0" y="0" width="250.1999969482422" height="129" class=" "></rect><text y="15" x="0"><tspan class="title" x="97.49999809265137">InputModel</tspan></text><line x1="0" y1="22" y2="22" x2="250.1999969482422"></line><text x="5" y="32" fill="white" class="classText"></text><line x1="0" y1="27" y2="27" x2="250.1999969482422"></line><text x="5" y="42" fill="white" class="classText"><tspan x="5" style="text-decoration:underline;">+isValidDate(date) : boolean</tspan><tspan x="5" style="text-decoration:underline;" dy="10">+isValidCompetitionTime(time) : boolean</tspan><tspan x="5" style="text-decoration:underline;" dy="10">+isValidCompetitionResultTime(time) : boolean</tspan><tspan x="5" style="text-decoration:underline;" dy="10">+isValidName(text) : boolean</tspan><tspan x="5" style="text-decoration:underline;" dy="10">+isValidMail(text) : boolean</tspan><tspan x="5" style="text-decoration:underline;" dy="10">+isValidPhoneNumber(text) : boolean</tspan><tspan x="5" style="text-decoration:underline;" dy="10">+isValidRange(in, min, max) : boolean</tspan><tspan x="5" style="text-decoration:underline;" dy="10">+isValidMemberId(in, members) : boolean</tspan><tspan x="5" style="text-decoration:underline;" dy="10">+isValidCompetitionId(in, competitions) : boolean</tspan></text></g><g id="classid-CompetitionModel-179" class="classGroup" transform="translate(1378.1999878883362,833.3000001907349 )"><rect x="0" y="0" width="100.4000015258789" height="31.600000381469727" class=" "></rect><text y="15" x="0"><tspan class="title" x="6.200000762939453">CompetitionModel</tspan></text><line x1="0" y1="22" y2="22" x2="100.4000015258789"></line><text x="5" y="32" fill="white" class="classText"></text><line x1="0" y1="27" y2="27" x2="100.4000015258789"></line><text x="5" y="42" fill="white" class="classText"></text></g><g id="classid-InputController-180" class="classGroup" transform="translate(478.9999985694885,81.60000038146973 )"><rect x="0" y="0" width="295.79998779296875" height="191" class=" "></rect><text y="15" x="0"><tspan class="title" x="109.89999389648438">InputController</tspan></text><line x1="0" y1="22" y2="22" x2="295.79998779296875"></line><text x="5" y="32" fill="white" class="classText"><tspan x="5">-Scanner</tspan><tspan x="5" dy="10">-InputView</tspan></text><line x1="0" y1="49.00000190734863" y2="49.00000190734863" x2="295.79998779296875"></line><text x="5" y="64.00000190734863" fill="white" class="classText"><tspan x="5">+promptYesNo() : boolean</tspan><tspan x="5" dy="10">+validateInteger() : int</tspan><tspan x="5" dy="10">+validateOptionRange(max) : int</tspan><tspan x="5" dy="10">+validateName() : String</tspan><tspan x="5" dy="10">+validateMail() : String</tspan><tspan x="5" dy="10">+validateDate() : String</tspan><tspan x="5" dy="10">+validatePhoneNumber() : String</tspan><tspan x="5" dy="10">+validateMemberId(members) : String</tspan><tspan x="5" dy="10">+validateCompetitionsId(competitions) : CompetitionModel</tspan><tspan x="5" dy="10">+validateCompetitionResultTime() : String</tspan><tspan x="5" dy="10">+validateCompetitionTime() : String</tspan><tspan x="5" dy="10">+validatePlacement() : String</tspan><tspan x="5" dy="10">+anyString() : String</tspan></text></g><g id="classid-MemberService-181" class="classGroup" transform="translate(1534.999990940094,477.6000003814697 )"><rect x="0" y="0" width="139.8000030517578" height="71" class=" "></rect><text y="15" x="0"><tspan class="title" x="32.30000305175781">MemberService</tspan></text><line x1="0" y1="22" y2="22" x2="139.8000030517578"></line><text x="5" y="32" fill="white" class="classText"><tspan x="5">-FILE_SERVICE:FileService</tspan></text><line x1="0" y1="39" y2="39" x2="139.8000030517578"></line><text x="5" y="54" fill="white" class="classText"><tspan x="5">+save(members)</tspan><tspan x="5" dy="10">+load() : MemberModel[]</tspan></text></g><g id="classid-FileService-182" class="classGroup" transform="translate(1528.599989414215,788.6000003814697 )"><rect x="0" y="0" width="152.60000610351562" height="121" class=" "></rect><text y="15" x="0"><tspan class="title" x="49.10000228881836">FileService</tspan></text><line x1="0" y1="22" y2="22" x2="152.60000610351562"></line><text x="5" y="32" fill="white" class="classText"><tspan x="5">-FILE:File</tspan><tspan x="5" dy="10">-PATH:String</tspan></text><line x1="0" y1="49.00000190734863" y2="49.00000190734863" x2="152.60000610351562"></line><text x="5" y="64.00000190734863" fill="white" class="classText"><tspan x="5">+readFromFile() : String[]</tspan><tspan x="5" dy="10">+writeToFile(input) : String[]</tspan><tspan x="5" dy="10">-createFileOnPath()</tspan><tspan x="5" dy="10">+writeToBin(byte[] bytes)</tspan><tspan x="5" dy="10">+loadFromBin() : byte[]</tspan><tspan x="5" dy="10">+readTextFile()</tspan></text></g><g id="classid-View-183" class="classGroup" transform="translate(298.34998893737793,994.6000003814697 )"><rect x="0" y="0" width="157.39999389648438" height="119" class=" "></rect><text y="15" x="0"><tspan x="53.89999771118164">«abstract»</tspan><tspan class="title" dy="10" x="67.09999656677246">View</tspan></text><line x1="0" y1="32" y2="32" x2="157.39999389648438"></line><text x="5" y="42" fill="white" class="classText"></text><line x1="0" y1="37" y2="37" x2="157.39999389648438"></line><text x="5" y="52" fill="white" class="classText"><tspan x="5">+printInline(text)</tspan><tspan x="5" dy="10">+print(String text)</tspan><tspan x="5" dy="10">+print(text, color)</tspan><tspan x="5" dy="10">+printSuccess(text)</tspan><tspan x="5" dy="10">+printWarning(text)</tspan><tspan x="5" dy="10">+printInlineWarning(text)</tspan><tspan x="5" dy="10">+displayOptions(String[] text)</tspan></text></g><path d="M89.19999837875366,31.600000381469727L89.19999837875366,35.76666704813639C89.19999837875366,39.93333371480306,89.19999837875366,48.26666704813639,89.19999837875366,69.88333368301392C89.19999837875366,91.50000031789143,89.19999837875366,126.40000025431316,89.19999837875366,143.85000022252402L89.19999837875366,161.30000019073486" id="edge88" class="relation" marker-end="url(#dependencyEnd)"></path><path d="M89.19999837875366,192.9000005722046L89.19999837875366,210.35000054041544C89.19999837875366,227.8000005086263,89.19999837875366,262.70000044504803,107.49234177950086,310.15000041325885C125.78468518024806,357.6000003814697,162.3693719817425,417.6000003814697,180.6617153824897,447.6000003814697L198.9540587832369,477.6000003814697" id="edge89" class="relation" marker-end="url(#dependencyEnd)"></path><path d="M282.7274494258682,31.600000381469727L281.706207600577,35.76666704813639C280.68496577528583,39.93333371480306,278.64248212470346,48.26666704813639,288.54016145515715,69.88333368301392C298.4378407856109,91.50000031789143,320.2756830971007,126.40000025431316,331.1946042528456,143.85000022252402L342.1135254085905,161.30000019073486" id="edge90" class="relation dashed-line" marker-end="url(#aggregationEnd)"></path><path d="M290.472547522374,31.600000381469727L291.4937893476652,35.76666704813639C292.51503117295636,39.93333371480306,294.5575148235387,48.26666704813639,280.1416612550779,69.88333368301392C265.7258076866171,91.50000031789143,234.8516168991131,126.40000025431316,219.4145215053611,143.85000022252402L203.9774261116091,161.30000019073486" id="edge91" class="relation" marker-end="url(#extensionEnd)"></path><path d="M749.1999878883362,28.384010798060014L722.8166553179423,33.0866757286283C696.4333227475485,37.78934065919659,643.6666576067606,47.194670520333155,556.299992720286,70.22732212080687C468.93332783381146,93.25997372128059,346.96666320164996,129.91994706109145,285.9833308855693,148.2499337309969L224.99999856948853,166.57992040090232" id="edge92" class="relation" marker-end="url(#extensionEnd)"></path><path d="M815.9274373142043,31.600000381469727L814.9061954889131,35.76666704813639C813.884953663622,39.93333371480306,811.8424700130396,48.26666704813639,810.8212281877485,72.5166670481364C809.7999863624573,96.7666670481364,809.7999863624573,136.93333371480307,809.7999863624573,177.10000038146973C809.7999863624573,217.26666704813638,809.7999863624573,257.43333371480304,808.0318116341464,281.68333371480304C806.2636369058354,305.93333371480304,802.7272874492133,314.2666670481364,800.9591127209025,318.43333371480304L799.1909379925916,322.6000003814697" id="edge93" class="relation" marker-end="url(#dependencyEnd)"></path><path d="M351.9999985694885,192.9000005722046L351.9999985694885,210.35000054041544C351.9999985694885,227.8000005086263,351.9999985694885,262.70000044504803,333.7076551687413,310.15000041325885C315.4153117679941,357.6000003814697,278.8306249664997,417.6000003814697,260.5382815657525,447.6000003814697L242.2459381650053,477.6000003814697" id="edge94" class="relation" marker-end="url(#dependencyEnd)"></path><path d="M823.6725354107102,31.600000381469727L824.6937772360014,35.76666704813639C825.7150190612925,39.93333371480306,827.757502711875,48.26666704813639,759.5869621985897,69.88333368301392C691.4164216853045,91.50000031789143,553.0328570081518,126.40000025431316,483.8410746695754,143.85000022252402L414.64929233099906,161.30000019073486" id="edge95" class="relation dashed-line" marker-end="url(#aggregationEnd)"></path><path d="M609.0887412350029,703.6000003814697L606.6989501549676,707.7666670481364C604.3091590749324,711.9333337148031,599.5295769148619,720.2666670481364,597.1397858348265,740.4333337148031C594.7499947547913,760.6000003814697,594.7499947547913,792.6000003814697,594.7499947547913,808.6000003814697L594.7499947547913,824.6000003814697" id="edge96" class="relation" marker-start="url(#aggregationStart)"></path><path d="M626.7685556201536,703.6000003814697L624.7654621425933,707.7666670481364C622.7623686650328,711.9333337148031,618.7561817099121,720.2666670481364,697.8280870879425,740.7172531646097C776.8999924659729,761.167839281083,939.0499901771545,793.7356781806963,1020.1249890327454,810.019597630503L1101.1999878883362,826.3035170803096" id="edge97" class="relation" marker-end="url(#dependencyEnd)"></path><path d="M864.1200603686464,703.6000003814697L867.3083821305544,707.7666670481364C870.4967038924623,711.9333337148031,876.8733474162782,720.2666670481364,880.0616691781861,744.5166670481364C883.249990940094,768.7666670481364,883.249990940094,808.9333337148031,883.249990940094,849.1000003814697C883.249990940094,889.2666670481364,883.249990940094,929.4333337148031,913.1999904314677,959.7544299456455C943.1499899228414,990.075526176488,1003.0499889055887,1010.5510519715061,1032.9999883969624,1020.7888148690153L1062.9499878883362,1031.0265777665243" id="edge98" class="relation" marker-end="url(#dependencyEnd)"></path><path d="M1034.098716048796,557.6000003814697L1012.2905951973456,586.1000003814697C990.4824743458953,614.6000003814697,946.8662326429945,671.6000003814697,925.0581117915443,720.1833337148031C903.249990940094,768.7666670481364,903.249990940094,808.9333337148031,903.249990940094,849.1000003814697C903.249990940094,889.2666670481364,903.249990940094,929.4333337148031,929.8666570981344,959.4159114168182C956.4833232561747,989.3984891188334,1009.7166555722555,1009.196977856197,1036.333321730296,1019.0962222248787L1062.9499878883362,1028.9954665935606" id="edge99" class="relation" marker-end="url(#dependencyEnd)"></path><path d="M1083.4823590553,557.6000003814697L1093.3019646237456,586.1000003814697C1103.121570192191,614.6000003814697,1122.760781329082,671.6000003814697,1135.0803867392412,704.2666670481364C1147.3999921494005,736.9333337148031,1152.3999918328282,745.2666670481364,1154.899991674542,749.4333337148031L1157.3999915162558,753.6000003814697" id="edge100" class="relation" marker-end="url(#dependencyEnd)"></path><path d="M201.30974350506634,548.6000003814697L185.00811958755526,578.6000003814697C168.70649567004423,608.6000003814697,136.1032478350221,668.6000003814697,119.80162391751105,714.6000003814697C103.5,760.6000003814697,103.5,792.6000003814697,103.5,808.6000003814697L103.5,824.6000003814697" id="edge101" class="relation" marker-start="url(#aggregationStart)"></path><path d="M244.24744590861062,548.6000003814697L264.23120430395386,578.6000003814697C284.21496269929713,608.6000003814697,324.1824794899837,668.6000003814697,344.1662378853269,713.3833338419596C364.14999628067017,758.1666673024496,364.14999628067017,787.7333342234293,364.14999628067017,802.5166676839193L364.14999628067017,817.3000011444092" id="edge102" class="relation" marker-end="url(#dependencyEnd)"></path><path d="M1319.5238910628582,577.6000003814697L1303.769908344847,602.7666670481364C1288.015925626836,627.9333337148031,1256.5079601908135,678.2666670481364,1240.3978223252761,707.6000003814697C1224.287684459739,736.9333337148031,1223.5753741646868,745.2666670481364,1223.2192190171606,749.4333337148031L1222.8630638696345,753.6000003814697" id="edge103" class="relation" marker-end="url(#dependencyEnd)"></path><path d="M1370.1511519879034,577.6000003814697L1374.1509584163568,602.7666670481364C1378.1507648448103,627.9333337148031,1386.1503777017172,678.2666670481364,1395.11003861671,720.8833336830139C1404.069699531703,763.5000003178915,1413.9894085047817,798.4000002543131,1418.949262991321,815.850000222524L1423.9091174778603,833.3000001907349" id="edge104" class="relation" marker-end="url(#dependencyEnd)"></path><path d="M1214.6999878883362,944.6000003814697L1214.6999878883362,948.7666670481364C1214.6999878883362,952.9333337148031,1214.6999878883362,961.2666670481364,1208.4352441718122,971.716667175293C1202.1705004552882,982.1666673024496,1189.6410130222403,994.7333342234293,1183.3762693057163,1001.0166676839193L1177.1115255891923,1007.3000011444092" id="edge105" class="relation" marker-end="url(#dependencyEnd)"></path><path d="M525.8919035982789,272.6000003814697L521.4849189181875,276.7666670481364C517.0779342380962,280.93333371480304,508.26396487791345,289.2666670481364,509.49031149665024,298.97916710332083C510.71665811538696,308.69166715850525,521.9833207130432,319.78333393554084,527.6166520118713,325.3291673240586L533.2499833106995,330.87500071257637" id="edge106" class="relation dashed-line" marker-start="url(#dependencyStart)"></path><path d="M691.4516497983972,272.6000003814697L694.2680397343669,276.7666670481364C697.0844296703366,280.93333371480304,702.7172095422758,289.2666670481364,631.6086011153864,326.0952249359405C560.499992688497,362.92378282374466,412.64999596277875,428.2475652660196,338.7249975999196,460.90945648715706L264.79999923706055,493.5713477082945" id="edge107" class="relation dashed-line" marker-start="url(#dependencyStart)"></path><path d="M1599.257881411267,548.6000003814697L1594.489900238276,578.6000003814697C1589.721919065285,608.6000003814697,1580.1859567193032,668.6000003814697,1578.2602990394782,708.6000003814697C1576.3346413596537,748.6000003814697,1582.0192883459858,768.6000003814697,1584.861611839152,778.6000003814697L1587.703935332318,788.6000003814697" id="edge108" class="relation" marker-end="url(#dependencyEnd)"></path><path d="M1606.5473242525159,548.6000003814697L1607.9394356214252,578.6000003814697C1609.3315469903348,608.6000003814697,1612.115769728154,668.6000003814697,1565.7245470007904,712.9875358455876C1519.3333242734273,757.3750713097055,1423.7666560808818,786.150142237941,1375.983321984609,800.5376777020589L1328.1999878883362,814.9252131661767" id="edge109" class="relation dashed-line" marker-end="url(#aggregationEnd)"></path><path d="M594.7499947547913,873.6000003814697L594.7499947547913,889.6000003814697C594.7499947547913,905.6000003814697,594.7499947547913,937.6000003814697,571.5833261013031,962.5921153170101C548.4166574478149,987.5842302525506,502.0833201408386,1005.5684601236313,478.91665148735046,1014.5605750591717L455.7499828338623,1023.5526899947121" id="edge110" class="relation" marker-end="url(#extensionEnd)"></path><path d="M103.5,873.6000003814697L103.5,889.6000003814697C103.5,905.6000003814697,103.5,937.6000003814697,135.97499815622965,963.631575909859C168.44999631245932,989.6631514382483,233.3999926249186,1009.7263024950266,265.87499078114826,1019.7578780234159L298.34998893737793,1029.789453551805" id="edge111" class="relation" marker-end="url(#extensionEnd)"></path></svg>