<svg id="mermaid-1622139839859" width="100%" xmlns="http://www.w3.org/2000/svg" xmlns:xlink="http://www.w3.org/1999/xlink" height="398" style="max-width: 511.5px;" viewBox="-103.5 -20 511.5 398"><style>#mermaid-1622139839859{font-family:"trebuchet ms",verdana,arial,sans-serif;font-size:16px;fill:#333;}#mermaid-1622139839859 .error-icon{fill:#552222;}#mermaid-1622139839859 .error-text{fill:#552222;stroke:#552222;}#mermaid-1622139839859 .edge-thickness-normal{stroke-width:2px;}#mermaid-1622139839859 .edge-thickness-thick{stroke-width:3.5px;}#mermaid-1622139839859 .edge-pattern-solid{stroke-dasharray:0;}#mermaid-1622139839859 .edge-pattern-dashed{stroke-dasharray:3;}#mermaid-1622139839859 .edge-pattern-dotted{stroke-dasharray:2;}#mermaid-1622139839859 .marker{fill:#333333;stroke:#333333;}#mermaid-1622139839859 .marker.cross{stroke:#333333;}#mermaid-1622139839859 svg{font-family:"trebuchet ms",verdana,arial,sans-serif;font-size:16px;}#mermaid-1622139839859 g.classGroup text{fill:#9370DB;fill:#131300;stroke:none;font-family:"trebuchet ms",verdana,arial,sans-serif;font-size:10px;}#mermaid-1622139839859 g.classGroup text .title{font-weight:bolder;}#mermaid-1622139839859 .classTitle{font-weight:bolder;}#mermaid-1622139839859 .node rect,#mermaid-1622139839859 .node circle,#mermaid-1622139839859 .node ellipse,#mermaid-1622139839859 .node polygon,#mermaid-1622139839859 .node path{fill:#ECECFF;stroke:#9370DB;stroke-width:1px;}#mermaid-1622139839859 .divider{stroke:#9370DB;stroke:1;}#mermaid-1622139839859 g.clickable{cursor:pointer;}#mermaid-1622139839859 g.classGroup rect{fill:#ECECFF;stroke:#9370DB;}#mermaid-1622139839859 g.classGroup line{stroke:#9370DB;stroke-width:1;}#mermaid-1622139839859 .classLabel .box{stroke:none;stroke-width:0;fill:#ECECFF;opacity:0.5;}#mermaid-1622139839859 .classLabel .label{fill:#9370DB;font-size:10px;}#mermaid-1622139839859 .relation{stroke:#333333;stroke-width:1;fill:none;}#mermaid-1622139839859 .dashed-line{stroke-dasharray:3;}#mermaid-1622139839859 #compositionStart,#mermaid-1622139839859 .composition{fill:#333333 !important;stroke:#333333 !important;stroke-width:1;}#mermaid-1622139839859 #compositionEnd,#mermaid-1622139839859 .composition{fill:#333333 !important;stroke:#333333 !important;stroke-width:1;}#mermaid-1622139839859 #dependencyStart,#mermaid-1622139839859 .dependency{fill:#333333 !important;stroke:#333333 !important;stroke-width:1;}#mermaid-1622139839859 #dependencyStart,#mermaid-1622139839859 .dependency{fill:#333333 !important;stroke:#333333 !important;stroke-width:1;}#mermaid-1622139839859 #extensionStart,#mermaid-1622139839859 .extension{fill:#333333 !important;stroke:#333333 !important;stroke-width:1;}#mermaid-1622139839859 #extensionEnd,#mermaid-1622139839859 .extension{fill:#333333 !important;stroke:#333333 !important;stroke-width:1;}#mermaid-1622139839859 #aggregationStart,#mermaid-1622139839859 .aggregation{fill:#ECECFF !important;stroke:#333333 !important;stroke-width:1;}#mermaid-1622139839859 #aggregationEnd,#mermaid-1622139839859 .aggregation{fill:#ECECFF !important;stroke:#333333 !important;stroke-width:1;}#mermaid-1622139839859 .edgeTerminals{font-size:11px;}#mermaid-1622139839859:root{--mermaid-font-family:"trebuchet ms",verdana,arial,sans-serif;}</style><g></g><defs><marker id="extensionStart" class="extension" refX="0" refY="7" markerWidth="190" markerHeight="240" orient="auto"><path d="M 1,7 L18,13 V 1 Z"></path></marker></defs><defs><marker id="extensionEnd" refX="19" refY="7" markerWidth="20" markerHeight="28" orient="auto"><path d="M 1,1 V 13 L18,7 Z"></path></marker></defs><defs><marker id="compositionStart" class="extension" refX="0" refY="7" markerWidth="190" markerHeight="240" orient="auto"><path d="M 18,7 L9,13 L1,7 L9,1 Z"></path></marker></defs><defs><marker id="compositionEnd" refX="19" refY="7" markerWidth="20" markerHeight="28" orient="auto"><path d="M 18,7 L9,13 L1,7 L9,1 Z"></path></marker></defs><defs><marker id="aggregationStart" class="extension" refX="0" refY="7" markerWidth="190" markerHeight="240" orient="auto"><path d="M 18,7 L9,13 L1,7 L9,1 Z"></path></marker></defs><defs><marker id="aggregationEnd" refX="19" refY="7" markerWidth="20" markerHeight="28" orient="auto"><path d="M 18,7 L9,13 L1,7 L9,1 Z"></path></marker></defs><defs><marker id="dependencyStart" class="extension" refX="0" refY="7" markerWidth="190" markerHeight="240" orient="auto"><path d="M 5,7 L9,13 L1,7 L9,1 Z"></path></marker></defs><defs><marker id="dependencyEnd" refX="19" refY="7" markerWidth="20" markerHeight="28" orient="auto"><path d="M 18,7 L9,13 L14,7 L9,1 Z"></path></marker></defs><g id="classid-PaymentRequest-134" class="classGroup" transform="translate(67.20000267028809,0 )"><rect x="0" y="0" width="93.19999694824219" height="31.600000381469727" class=" "></rect><text y="15" x="0"><tspan class="title" x="6.1999969482421875">PaymentRequest</tspan></text><line x1="0" y1="22" y2="22" x2="93.19999694824219"></line><text x="5" y="32" fill="white" class="classText"></text><line x1="0" y1="27" y2="27" x2="93.19999694824219"></line><text x="5" y="42" fill="white" class="classText"></text></g><g id="classid-Member-135" class="classGroup" transform="translate(99.60000228881836,326.4000015258789 )"><rect x="0" y="0" width="51.599998474121094" height="31.600000381469727" class=" "></rect><text y="15" x="0"><tspan class="title" x="6.19999885559082">Member</tspan></text><line x1="0" y1="22" y2="22" x2="51.599998474121094"></line><text x="5" y="32" fill="white" class="classText"></text><line x1="0" y1="27" y2="27" x2="51.599998474121094"></line><text x="5" y="42" fill="white" class="classText"></text></g><g id="classid-Style-136" class="classGroup" transform="translate(0,163.20000076293945 )"><rect x="0" y="0" width="36.39999961853027" height="31.600000381469727" class=" "></rect><text y="15" x="0"><tspan class="title" x="6.200000762939453">Style</tspan></text><line x1="0" y1="22" y2="22" x2="36.400001525878906"></line><text x="5" y="32" fill="white" class="classText"></text><line x1="0" y1="27" y2="27" x2="36.400001525878906"></line><text x="5" y="42" fill="white" class="classText"></text></g><g id="classid-Discipline-137" class="classGroup" transform="translate(25.600000381469727,244.80000114440918 )"><rect x="0" y="0" width="60.400001525878906" height="31.600000381469727" class=" "></rect><text y="15" x="0"><tspan class="title" x="6.200000762939453">Discipline</tspan></text><line x1="0" y1="22" y2="22" x2="60.400001525878906"></line><text x="5" y="32" fill="white" class="classText"></text><line x1="0" y1="27" y2="27" x2="60.400001525878906"></line><text x="5" y="42" fill="white" class="classText"></text></g><g id="classid-Distance-138" class="classGroup" transform="translate(86.4000015258789,163.20000076293945 )"><rect x="0" y="0" width="54" height="31.600000381469727" class=" "></rect><text y="15" x="0"><tspan class="title" x="6.200000762939453">Distance</tspan></text><line x1="0" y1="22" y2="22" x2="54"></line><text x="5" y="32" fill="white" class="classText"></text><line x1="0" y1="27" y2="27" x2="54"></line><text x="5" y="42" fill="white" class="classText"></text></g><g id="classid-PaymentStatus-139" class="classGroup" transform="translate(190.4000015258789,163.20000076293945 )"><rect x="0" y="0" width="84.4000015258789" height="31.600000381469727" class=" "></rect><text y="15" x="0"><tspan class="title" x="6.200000762939453">PaymentStatus</tspan></text><line x1="0" y1="22" y2="22" x2="84.4000015258789"></line><text x="5" y="32" fill="white" class="classText"></text><line x1="0" y1="27" y2="27" x2="84.4000015258789"></line><text x="5" y="42" fill="white" class="classText"></text></g><g id="classid-Membership-140" class="classGroup" transform="translate(196.4000015258789,244.80000114440918 )"><rect x="0" y="0" width="72.4000015258789" height="31.600000381469727" class=" "></rect><text y="15" x="0"><tspan class="title" x="6.200000762939453">Membership</tspan></text><line x1="0" y1="22" y2="22" x2="72.4000015258789"></line><text x="5" y="32" fill="white" class="classText"></text><line x1="0" y1="27" y2="27" x2="72.4000015258789"></line><text x="5" y="42" fill="white" class="classText"></text></g><g id="classid-Payment-141" class="classGroup" transform="translate(102.80000114440918,81.60000038146973 )"><rect x="0" y="0" width="54" height="31.600000381469727" class=" "></rect><text y="15" x="0"><tspan class="title" x="6.200000762939453">Payment</tspan></text><line x1="0" y1="22" y2="22" x2="54"></line><text x="5" y="32" fill="white" class="classText"></text><line x1="0" y1="27" y2="27" x2="54"></line><text x="5" y="42" fill="white" class="classText"></text></g><g id="classid-Result-142" class="classGroup" transform="translate(320.8000020980835,244.80000114440918 )"><rect x="0" y="0" width="42.79999923706055" height="31.600000381469727" class=" "></rect><text y="15" x="0"><tspan class="title" x="6.199999809265137">Result</tspan></text><line x1="0" y1="22" y2="22" x2="42.79999923706055"></line><text x="5" y="32" fill="white" class="classText"></text><line x1="0" y1="27" y2="27" x2="42.79999923706055"></line><text x="5" y="42" fill="white" class="classText"></text></g><g id="classid-Competition-143" class="classGroup" transform="translate(316.4000024795532,326.4000015258789 )"><rect x="0" y="0" width="71.5999984741211" height="31.600000381469727" class=" "></rect><text y="15" x="0"><tspan class="title" x="6.19999885559082">Competition</tspan></text><line x1="0" y1="22" y2="22" x2="71.5999984741211"></line><text x="5" y="32" fill="white" class="classText"></text><line x1="0" y1="27" y2="27" x2="71.5999984741211"></line><text x="5" y="42" fill="white" class="classText"></text></g><path d="M67.20000267028809,28.082170297818564L49.16666889190674,32.83514197842709C31.13333511352539,37.58811365903562,-4.933332443237305,47.09405702025267,-22.966666221618652,58.64702873265034C-41,70.20000044504802,-41,83.8000005086263,-41,97.40000057220459C-41,111.00000063578288,-41,124.60000069936116,-41,138.20000076293945C-41,151.80000082651773,-41,165.40000089009604,-41,179.00000095367432C-41,192.6000010172526,-41,206.2000010808309,-41,219.80000114440918C-41,233.40000120798746,-41,247.00000127156576,-41,260.60000133514404C-41,274.20000139872235,-41,287.8000014623006,-17.56666628519694,300.34567463871906C5.86666742960612,312.8913478151375,52.73333485921224,324.38269410439614,76.1666685740153,330.1283672490254L99.60000228881836,335.87404039365475" id="edge77" class="relation" marker-end="url(#dependencyEnd)"></path><g class="classLabel"><rect class="box" x="-83.5" y="183.33480834960938" width="85.80000305175781" height="17"></rect><text class="label" x="-41" y="195.43481761212223" fill="red" text-anchor="middle">gets ID and Price</text></g><path d="M18.200000762939453,194.80000114440918L18.200000762939453,198.96666781107584C18.200000762939453,203.13333447774252,18.200000762939453,211.46666781107584,22.039870064991586,219.80000114440918C25.879739367043715,228.13333447774252,33.55947797114798,236.46666781107584,37.39934727320011,240.63333447774252L41.239216575252236,244.80000114440918" id="edge78" class="relation" marker-end="url(#dependencyEnd)"></path><g class="classLabel"><rect class="box" x="-11.65140438079834" y="211.00804138183594" width="66.5999984741211" height="17"></rect><text class="label" x="21.248595945837312" y="223.1080512183928" fill="red" text-anchor="middle">Contained in</text></g><g class="cardinality"><text class="type1" x="13.200000762939453" y="207.30000114440918" fill="black" font-size="6">1</text></g><g class="cardinality"><text class="type2" x="40.12176379280679" y="228.831241039786" fill="black" font-size="6">1</text></g><path d="M113.4000015258789,194.80000114440918L113.4000015258789,198.96666781107584C113.4000015258789,203.13333447774252,113.4000015258789,211.46666781107584,107.5176485732444,219.80000114440918C101.63529562060991,228.13333447774252,89.87058971534093,236.46666781107584,83.98823676270642,240.63333447774252L78.10588381007193,244.80000114440918" id="edge79" class="relation" marker-end="url(#dependencyEnd)"></path><g class="classLabel"><rect class="box" x="73.0532455444336" y="212.9747772216797" width="66.5999984741211" height="17"></rect><text class="label" x="105.95324868838436" y="225.0747843940266" fill="red" text-anchor="middle">Contained in</text></g><g class="cardinality"><text class="type1" x="108.4000015258789" y="207.30000114440918" fill="black" font-size="6">1</text></g><g class="cardinality"><text class="type2" x="94.08636323078694" y="245.73502921035373" fill="black" font-size="6">1</text></g><path d="M55.80000114440918,276.4000015258789L55.80000114440918,280.5666681925456C55.80000114440918,284.7333348592122,55.80000114440918,293.0666681925456,63.10000133514404,301.5126453124007C70.4000015258789,309.9586224322559,85.00000190734863,318.5172433386329,92.3000020980835,322.7965537918214L99.60000228881836,327.0758642450099" id="edge80" class="relation" marker-end="url(#dependencyEnd)"></path><g class="classLabel"><rect class="box" x="34.016273498535156" y="295.8164367675781" width="66.5999984741211" height="17"></rect><text class="label" x="66.91627708817009" y="307.9164391428312" fill="red" text-anchor="middle">Contained in</text></g><g class="cardinality"><text class="type1" x="50.80000114440918" y="288.9000015258789" fill="black" font-size="6">*</text></g><g class="cardinality"><text class="type2" x="93.87347265446522" y="312.1273907996417" fill="black" font-size="6">1</text></g><path d="M232.60000228881836,194.80000114440918L232.60000228881836,198.96666781107584C232.60000228881836,203.13333447774252,232.60000228881836,211.46666781107584,232.60000228881836,219.80000114440918C232.60000228881836,228.13333447774252,232.60000228881836,236.46666781107584,232.60000228881836,240.63333447774252L232.60000228881836,244.80000114440918" id="edge81" class="relation" marker-end="url(#dependencyEnd)"></path><g class="classLabel"><rect class="box" x="199.70001220703125" y="207.6999969482422" width="66.5999984741211" height="17"></rect><text class="label" x="232.60000228881836" y="219.80000114440918" fill="red" text-anchor="middle">Contained in</text></g><g class="cardinality"><text class="type1" x="227.60000228881836" y="207.30000114440918" fill="black" font-size="6">1</text></g><g class="cardinality"><text class="type2" x="242.60000228881836" y="232.30000114440918" fill="black" font-size="6">1</text></g><path d="M129.80000114440918,113.20000076293945L129.80000114440918,117.36666742960612C129.80000114440918,121.53333409627278,129.80000114440918,129.8666674296061,140.2983672252744,138.20000076293945C150.7967333061396,146.5333340962728,171.79346546787,154.8666674296061,182.29183154873522,159.0333340962728L192.7901976296004,163.20000076293945" id="edge82" class="relation" marker-end="url(#dependencyEnd)"></path><g class="classLabel"><rect class="box" x="127.57670593261719" y="133.98880004882812" width="45" height="17"></rect><text class="label" x="149.67671151881518" y="146.08881183335694" fill="red" text-anchor="middle">Updates</text></g><g class="cardinality"><text class="type1" x="124.80000114440918" y="125.70000076293945" fill="black" font-size="6">1</text></g><g class="cardinality"><text class="type2" x="184.86076090507677" y="149.29410153880525" fill="black" font-size="6">1</text></g><path d="M232.60000228881836,276.4000015258789L232.60000228881836,280.5666681925456C232.60000228881836,284.7333348592122,232.60000228881836,293.0666681925456,219.03333536783853,302.3967677792144C205.46666844685873,311.72686736588315,178.33333460489908,322.05373320588734,164.76666768391928,327.2171661258895L151.20000076293945,332.3805990458916" id="edge83" class="relation" marker-end="url(#dependencyEnd)"></path><g class="classLabel"><rect class="box" x="170.68247985839844" y="300.3439636230469" width="66.5999984741211" height="17"></rect><text class="label" x="203.58247876503674" y="312.4439843325865" fill="red" text-anchor="middle">Contained in</text></g><g class="cardinality"><text class="type1" x="227.60000228881836" y="288.9000015258789" fill="black" font-size="6">*</text></g><g class="cardinality"><text class="type2" x="166.4395307647363" y="337.28026488391913" fill="black" font-size="6">1</text></g><path d="M324.46372737106753,276.4000015258789L319.7864398891485,280.5666681925456C315.10915240722943,284.7333348592122,305.7545774433913,293.0666681925456,276.87728967537,303.0073700099854C248.00000190734863,312.94807182742517,199.60000133514404,324.4961421289715,175.40000104904175,330.27017727974464L151.20000076293945,336.0442124305178" id="edge84" class="relation" marker-end="url(#dependencyEnd)"></path><g class="classLabel"><rect class="box" x="218.37901306152344" y="302.26080322265625" width="48.20000076293945" height="17"></rect><text class="label" x="242.07901039815113" y="314.36079962483643" fill="red" text-anchor="middle">Contains</text></g><g class="cardinality"><text class="type1" x="311.8042463666877" y="280.9812175980312" fill="black" font-size="6">1</text></g><g class="cardinality"><text class="type2" x="165.6795229458496" y="342.8701510000196" fill="black" font-size="6">1</text></g><path d="M244.60490433840238,163.20000076293945L247.77075399680504,159.0333340962728C250.9366036552077,154.8666674296061,257.26830297201303,146.5333340962728,260.43415263041567,135.56666739781699C263.60000228881836,124.60000069936116,263.60000228881836,111.00000063578288,263.60000228881836,97.40000057220459C263.60000228881836,83.8000005086263,263.60000228881836,70.20000044504802,246.40000184377035,58.71535411100623C229.20000139872232,47.23070777696444,194.8000005086263,37.86141517245914,177.60000006357828,33.176768870206494L160.39999961853027,28.492122567953846" id="edge85" class="relation" marker-end="url(#dependencyEnd)"></path><g class="classLabel"><rect class="box" x="246.70001220703125" y="47.51918411254883" width="34.60000038146973" height="17"></rect><text class="label" x="263.60000228881836" y="59.61918260525351" fill="red" text-anchor="middle">Sends</text></g><g class="cardinality"><text class="type1" x="256.14839506505365" y="156.27195472933687" fill="black" font-size="6">1</text></g><g class="cardinality"><text class="type2" x="169.83275758860825" y="41.42553190493574" fill="black" font-size="6">1</text></g><path d="M119.99607962161383,31.600000381469727L121.63006654207972,35.76666704813639C123.26405346254562,39.93333371480306,126.53202730347739,48.26666704813639,128.16601422394328,56.60000038146973C129.80000114440918,64.93333371480306,129.80000114440918,73.2666670481364,129.80000114440918,77.43333371480306L129.80000114440918,81.60000038146973" id="edge86" class="relation" marker-end="url(#dependencyEnd)"></path><g class="classLabel"><rect class="box" x="108.96163940429688" y="43.63716506958008" width="41.79999923706055" height="17"></rect><text class="label" x="129.4616344747516" y="55.73716536980924" fill="red" text-anchor="middle">creates</text></g><g class="cardinality"><text class="type1" x="119.9048077180181" y="45.06260300650527" fill="black" font-size="6">1</text></g><g class="cardinality"><text class="type2" x="139.80000114440918" y="69.10000038146973" fill="black" font-size="6">1</text></g><path d="M346.07255076486666,276.4000015258789L347.0937925901579,280.5666681925456C348.1150344154491,284.7333348592122,350.1575180660314,293.0666681925456,351.1787598913226,301.4000015258789C352.20000171661377,309.7333348592122,352.20000171661377,318.0666681925456,352.20000171661377,322.2333348592122L352.20000171661377,326.4000015258789" id="edge87" class="relation" marker-end="url(#dependencyEnd)"></path><g class="classLabel"><rect class="box" x="319.2119445800781" y="288.9406433105469" width="66.5999984741211" height="17"></rect><text class="label" x="352.11192695217585" y="301.04065648529246" fill="red" text-anchor="middle">Contained in</text></g><g class="cardinality"><text class="type1" x="344.1919394925369" y="289.7309167698667" fill="black" font-size="6">*</text></g><g class="cardinality"><text class="type2" x="362.20000171661377" y="313.9000015258789" fill="black" font-size="6">1</text></g></svg>