<svg id="mermaid-1622139739743" width="100%" xmlns="http://www.w3.org/2000/svg" xmlns:xlink="http://www.w3.org/1999/xlink" height="1950.199951171875" style="max-width: 6203.5px;" viewBox="-20 -20 6203.5 1950.199951171875"><style>#mermaid-1622139739743{font-family:"trebuchet ms",verdana,arial,sans-serif;font-size:16px;fill:#333;}#mermaid-1622139739743 .error-icon{fill:#552222;}#mermaid-1622139739743 .error-text{fill:#552222;stroke:#552222;}#mermaid-1622139739743 .edge-thickness-normal{stroke-width:2px;}#mermaid-1622139739743 .edge-thickness-thick{stroke-width:3.5px;}#mermaid-1622139739743 .edge-pattern-solid{stroke-dasharray:0;}#mermaid-1622139739743 .edge-pattern-dashed{stroke-dasharray:3;}#mermaid-1622139739743 .edge-pattern-dotted{stroke-dasharray:2;}#mermaid-1622139739743 .marker{fill:#333333;stroke:#333333;}#mermaid-1622139739743 .marker.cross{stroke:#333333;}#mermaid-1622139739743 svg{font-family:"trebuchet ms",verdana,arial,sans-serif;font-size:16px;}#mermaid-1622139739743 g.classGroup text{fill:#9370DB;fill:#131300;stroke:none;font-family:"trebuchet ms",verdana,arial,sans-serif;font-size:10px;}#mermaid-1622139739743 g.classGroup text .title{font-weight:bolder;}#mermaid-1622139739743 .classTitle{font-weight:bolder;}#mermaid-1622139739743 .node rect,#mermaid-1622139739743 .node circle,#mermaid-1622139739743 .node ellipse,#mermaid-1622139739743 .node polygon,#mermaid-1622139739743 .node path{fill:#ECECFF;stroke:#9370DB;stroke-width:1px;}#mermaid-1622139739743 .divider{stroke:#9370DB;stroke:1;}#mermaid-1622139739743 g.clickable{cursor:pointer;}#mermaid-1622139739743 g.classGroup rect{fill:#ECECFF;stroke:#9370DB;}#mermaid-1622139739743 g.classGroup line{stroke:#9370DB;stroke-width:1;}#mermaid-1622139739743 .classLabel .box{stroke:none;stroke-width:0;fill:#ECECFF;opacity:0.5;}#mermaid-1622139739743 .classLabel .label{fill:#9370DB;font-size:10px;}#mermaid-1622139739743 .relation{stroke:#333333;stroke-width:1;fill:none;}#mermaid-1622139739743 .dashed-line{stroke-dasharray:3;}#mermaid-1622139739743 #compositionStart,#mermaid-1622139739743 .composition{fill:#333333 !important;stroke:#333333 !important;stroke-width:1;}#mermaid-1622139739743 #compositionEnd,#mermaid-1622139739743 .composition{fill:#333333 !important;stroke:#333333 !important;stroke-width:1;}#mermaid-1622139739743 #dependencyStart,#mermaid-1622139739743 .dependency{fill:#333333 !important;stroke:#333333 !important;stroke-width:1;}#mermaid-1622139739743 #dependencyStart,#mermaid-1622139739743 .dependency{fill:#333333 !important;stroke:#333333 !important;stroke-width:1;}#mermaid-1622139739743 #extensionStart,#mermaid-1622139739743 .extension{fill:#333333 !important;stroke:#333333 !important;stroke-width:1;}#mermaid-1622139739743 #extensionEnd,#mermaid-1622139739743 .extension{fill:#333333 !important;stroke:#333333 !important;stroke-width:1;}#mermaid-1622139739743 #aggregationStart,#mermaid-1622139739743 .aggregation{fill:#ECECFF !important;stroke:#333333 !important;stroke-width:1;}#mermaid-1622139739743 #aggregationEnd,#mermaid-1622139739743 .aggregation{fill:#ECECFF !important;stroke:#333333 !important;stroke-width:1;}#mermaid-1622139739743 .edgeTerminals{font-size:11px;}#mermaid-1622139739743:root{--mermaid-font-family:"trebuchet ms",verdana,arial,sans-serif;}</style><g></g><defs><marker id="extensionStart" class="extension" refX="0" refY="7" markerWidth="190" markerHeight="240" orient="auto"><path d="M 1,7 L18,13 V 1 Z"></path></marker></defs><defs><marker id="extensionEnd" refX="19" refY="7" markerWidth="20" markerHeight="28" orient="auto"><path d="M 1,1 V 13 L18,7 Z"></path></marker></defs><defs><marker id="compositionStart" class="extension" refX="0" refY="7" markerWidth="190" markerHeight="240" orient="auto"><path d="M 18,7 L9,13 L1,7 L9,1 Z"></path></marker></defs><defs><marker id="compositionEnd" refX="19" refY="7" markerWidth="20" markerHeight="28" orient="auto"><path d="M 18,7 L9,13 L1,7 L9,1 Z"></path></marker></defs><defs><marker id="aggregationStart" class="extension" refX="0" refY="7" markerWidth="190" markerHeight="240" orient="auto"><path d="M 18,7 L9,13 L1,7 L9,1 Z"></path></marker></defs><defs><marker id="aggregationEnd" refX="19" refY="7" markerWidth="20" markerHeight="28" orient="auto"><path d="M 18,7 L9,13 L1,7 L9,1 Z"></path></marker></defs><defs><marker id="dependencyStart" class="extension" refX="0" refY="7" markerWidth="190" markerHeight="240" orient="auto"><path d="M 5,7 L9,13 L1,7 L9,1 Z"></path></marker></defs><defs><marker id="dependencyEnd" refX="19" refY="7" markerWidth="20" markerHeight="28" orient="auto"><path d="M 18,7 L9,13 L14,7 L9,1 Z"></path></marker></defs><g id="classid-Main-62" class="classGroup" transform="translate(4861.499981880188,350.69999980926514 )"><rect x="0" y="0" width="35.60000038146973" height="31.600000381469727" class=" "></rect><text y="15" x="0"><tspan class="title" x="6.19999885559082">Main</tspan></text><line x1="0" y1="22" y2="22" x2="35.599998474121094"></line><text x="5" y="32" fill="white" class="classText"></text><line x1="0" y1="27" y2="27" x2="35.599998474121094"></line><text x="5" y="42" fill="white" class="classText"></text></g><g id="classid-App-63" class="classGroup" transform="translate(4863.499980926514,611.6999998092651 )"><rect x="0" y="0" width="31.600000381469727" height="31.600000381469727" class=" "></rect><text y="15" x="0"><tspan class="title" x="6.199999809265137">App</tspan></text><line x1="0" y1="22" y2="22" x2="31.600000381469727"></line><text x="5" y="32" fill="white" class="classText"></text><line x1="0" y1="27" y2="27" x2="31.600000381469727"></line><text x="5" y="42" fill="white" class="classText"></text></g><g id="classid-MenuController-64" class="classGroup" transform="translate(4651.699980258942,918 )"><rect x="0" y="0" width="88.4000015258789" height="81" class=" "></rect><text y="15" x="0"><tspan class="title" x="6.200000762939453">MenuController</tspan></text><line x1="0" y1="22" y2="22" x2="88.4000015258789"></line><text x="5" y="32" fill="white" class="classText"><tspan x="5">-MenuView</tspan><tspan x="5" dy="10">-MenuModel</tspan></text><line x1="0" y1="49.00000190734863" y2="49.00000190734863" x2="88.4000015258789"></line><text x="5" y="64.00000190734863" fill="white" class="classText"><tspan x="5">+Run()</tspan><tspan x="5" dy="10">-displayMenu()</tspan></text></g><g id="classid-AddResultMenuAction-65" class="classGroup" transform="translate(1182.9500045776367,79.69999980926514 )"><rect x="0" y="0" width="119.5999984741211" height="31.600000381469727" class=" "></rect><text y="15" x="0"><tspan class="title" x="6.200000762939453">AddResultMenuAction</tspan></text><line x1="0" y1="22" y2="22" x2="119.5999984741211"></line><text x="5" y="32" fill="white" class="classText"></text><line x1="0" y1="27" y2="27" x2="119.5999984741211"></line><text x="5" y="42" fill="white" class="classText"></text></g><g id="classid-SwimEventController-66" class="classGroup" transform="translate(1405.9499988555908,241 )"><rect x="0" y="0" width="274.20001220703125" height="251" class=" "></rect><text y="15" x="0"><tspan class="title" x="85.90000534057617">SwimEventController</tspan></text><line x1="0" y1="22" y2="22" x2="274.20001220703125"></line><text x="5" y="32" fill="white" class="classText"><tspan x="5">-SwimEventView</tspan><tspan x="5" dy="10">-MemberController</tspan><tspan x="5" dy="10">-Arraylist&lt;CompetitionModel&gt;</tspan><tspan x="5" dy="10">-CompetitionService</tspan></text><line x1="0" y1="69" y2="69" x2="274.20001220703125"></line><text x="5" y="84" fill="white" class="classText"><tspan x="5">+createNewCompetition()</tspan><tspan x="5" dy="10">+createNewPractice()</tspan><tspan x="5" dy="10">-getAgeGroup(ageGroup) : AgeGroupType</tspan><tspan x="5" dy="10">+addResultToCompetition()</tspan><tspan x="5" dy="10">+addResultToPractice()</tspan><tspan x="5" dy="10">+viewCompetitionResults()</tspan><tspan x="5" dy="10">+viewPracticeResults()</tspan><tspan x="5" dy="10">-arrayWithResultToDisplay(result)</tspan><tspan x="5" dy="10">-addResultToSwimEvent(swimEventModel, resultModel)</tspan><tspan x="5" dy="10">-saveSwimEvents()</tspan><tspan x="5" dy="10">-toArraylist(competitions [])</tspan><tspan x="5" dy="10">-generateSwimEventId() : String</tspan><tspan x="5" dy="10">-getSwimEventHeader() : String[]</tspan><tspan x="5" dy="10">+getColumnWidth() : int[]</tspan><tspan x="5" dy="10">-getSwimEventLineLine(competition) : String[]</tspan><tspan x="5" dy="10">-viewTableCompetitions()</tspan><tspan x="5" dy="10">-viewTablePractice()</tspan></text></g><g id="classid-AnonymizeMenuAction-67" class="classGroup" transform="translate(3854.1499919891357,611.6999998092651 )"><rect x="0" y="0" width="123.5999984741211" height="31.600000381469727" class=" "></rect><text y="15" x="0"><tspan class="title" x="6.200000762939453">AnonymizeMenuAction</tspan></text><line x1="0" y1="22" y2="22" x2="123.5999984741211"></line><text x="5" y="32" fill="white" class="classText"></text><line x1="0" y1="27" y2="27" x2="123.5999984741211"></line><text x="5" y="42" fill="white" class="classText"></text></g><g id="classid-MemberController-68" class="classGroup" transform="translate(2711.7499961853027,763 )"><rect x="0" y="0" width="368.6000061035156" height="391" class=" "></rect><text y="15" x="0"><tspan class="title" x="139.9000015258789">MemberController</tspan></text><line x1="0" y1="22" y2="22" x2="368.6000061035156"></line><text x="5" y="32" fill="white" class="classText"><tspan x="5">-MemberView</tspan><tspan x="5" dy="10">-MembershipController</tspan><tspan x="5" dy="10">-ArrayList&lt;MemberModel&gt;</tspan></text><line x1="0" y1="59" y2="59" x2="368.6000061035156"></line><text x="5" y="74" fill="white" class="classText"><tspan x="5">+createMember()</tspan><tspan x="5" dy="10">-addMember(id, name, mail, gender, birthday, phone, competitive, active)</tspan><tspan x="5" dy="10">-gendersToArray() : String[]</tspan><tspan x="5" dy="10">+renewExpiringMembers()</tspan><tspan x="5" dy="10">~removeMemberFromList(members)</tspan><tspan x="5" dy="10">~getMemberById(id, members) : MenuModel</tspan><tspan x="5" dy="10">~getMemberById(id) : MenuModel</tspan><tspan x="5" dy="10">~saveMembers()</tspan><tspan x="5" dy="10">-loadMembers() : MemberModel[]</tspan><tspan x="5" dy="10">-membersToArraysList(members)</tspan><tspan x="5" dy="10">-getMemberHeader(expanded) : String[]</tspan><tspan x="5" dy="10">-viewTableMembers(member, expanded)</tspan><tspan x="5" dy="10">-viewTableMembers(members.expanded)</tspan><tspan x="5" dy="10">+viewTableMembers()</tspan><tspan x="5" dy="10">-getMemberContent(members, expanded)</tspan><tspan x="5" dy="10">-getMemberContent(member, expanded)</tspan><tspan x="5" dy="10">-getRows(member,expanded)</tspan><tspan x="5" dy="10">+searchMember()</tspan><tspan x="5" dy="10">-viewMemberById()</tspan><tspan x="5" dy="10">-viewMembersByName()</tspan><tspan x="5" dy="10">-getMembersByName(name)</tspan><tspan x="5" dy="10">-viewMembersByMail()</tspan><tspan x="5" dy="10">-getMembersByMail(mail)</tspan><tspan x="5" dy="10">-viewMemberByPhoneNumber()</tspan><tspan x="5" dy="10">-getMemberByPhoneNumber(phoneNumber)</tspan><tspan x="5" dy="10">+anonymizeMember()</tspan><tspan x="5" dy="10">+editMember()</tspan><tspan x="5" dy="10">-generateMemberId() : String</tspan><tspan x="5" dy="10">~getExpiringMembers(memberModels,days)</tspan><tspan x="5" dy="10">~getUnpaidMembers(ArrayList&lt;MemberModel&gt; memberModels)</tspan><tspan x="5" dy="10">-addDiscipline(member,discpline)</tspan><tspan x="5" dy="10">-addDisciplineToMember(member)</tspan></text></g><g id="classid-CompetitionSubMenuMenuAction-69" class="classGroup" transform="translate(4639.499980926514,611.6999998092651 )"><rect x="0" y="0" width="174" height="31.600000381469727" class=" "></rect><text y="15" x="0"><tspan class="title" x="6.1999969482421875">CompetitionSubMenuMenuAction</tspan></text><line x1="0" y1="22" y2="22" x2="174"></line><text x="5" y="32" fill="white" class="classText"></text><line x1="0" y1="27" y2="27" x2="174"></line><text x="5" y="42" fill="white" class="classText"></text></g><g id="classid-CreateCompetitionSubMenuMenuAction-70" class="classGroup" transform="translate(3521.3499965667725,350.69999980926514 )"><rect x="0" y="0" width="206" height="31.600000381469727" class=" "></rect><text y="15" x="0"><tspan class="title" x="6.1999969482421875">CreateCompetitionSubMenuMenuAction</tspan></text><line x1="0" y1="22" y2="22" x2="206"></line><text x="5" y="32" fill="white" class="classText"></text><line x1="0" y1="27" y2="27" x2="206"></line><text x="5" y="42" fill="white" class="classText"></text></g><g id="classid-CompetitionController-71" class="classGroup" transform="translate(3298.1500034332275,611.6999998092651 )"><rect x="0" y="0" width="121.19999694824219" height="31.600000381469727" class=" "></rect><text y="15" x="0"><tspan class="title" x="6.1999969482421875">CompetitionController</tspan></text><line x1="0" y1="22" y2="22" x2="121.19999694824219"></line><text x="5" y="32" fill="white" class="classText"></text><line x1="0" y1="27" y2="27" x2="121.19999694824219"></line><text x="5" y="42" fill="white" class="classText"></text></g><g id="classid-CreateMemberMenuAction-72" class="classGroup" transform="translate(3662.9499950408936,611.6999998092651 )"><rect x="0" y="0" width="141.1999969482422" height="31.600000381469727" class=" "></rect><text y="15" x="0"><tspan class="title" x="6.1999969482421875">CreateMemberMenuAction</tspan></text><line x1="0" y1="22" y2="22" x2="141.1999969482422"></line><text x="5" y="32" fill="white" class="classText"></text><line x1="0" y1="27" y2="27" x2="141.1999969482422"></line><text x="5" y="42" fill="white" class="classText"></text></g><g id="classid-DisplayArrearsMenuAction-73" class="classGroup" transform="translate(1926.150011062622,350.69999980926514 )"><rect x="0" y="0" width="142" height="31.600000381469727" class=" "></rect><text y="15" x="0"><tspan class="title" x="6.1999969482421875">DisplayArrearsMenuAction</tspan></text><line x1="0" y1="22" y2="22" x2="142"></line><text x="5" y="32" fill="white" class="classText"></text><line x1="0" y1="27" y2="27" x2="142"></line><text x="5" y="42" fill="white" class="classText"></text></g><g id="classid-PaymentController-74" class="classGroup" transform="translate(1803.4500141143799,542 )"><rect x="0" y="0" width="193.39999389648438" height="171" class=" "></rect><text y="15" x="0"><tspan class="title" x="51.099998474121094">PaymentController</tspan></text><line x1="0" y1="22" y2="22" x2="193.39999389648438"></line><text x="5" y="32" fill="white" class="classText"><tspan x="5">-MemberController</tspan><tspan x="5" dy="10">-PaymentView</tspan><tspan x="5" dy="10">-ArrayList&lt;String&gt;</tspan><tspan x="5" dy="10">-PaymentService</tspan></text><line x1="0" y1="69" y2="69" x2="193.39999389648438"></line><text x="5" y="84" fill="white" class="classText"><tspan x="5">-updatePaymentStatus(members)</tspan><tspan x="5" dy="10">-reviewPaymentFile()</tspan><tspan x="5" dy="10">+handlePayments()</tspan><tspan x="5" dy="10">-getValidPayments()</tspan><tspan x="5" dy="10">-createBackupFile(failedPayments)</tspan><tspan x="5" dy="10">+displayMembersInArrear()</tspan><tspan x="5" dy="10">~getMembersInArrear(members)</tspan><tspan x="5" dy="10">~calcPeriod(date1, date2) : String</tspan><tspan x="5" dy="10">+requestPaymentforUnpaidMembers()</tspan></text></g><g id="classid-EditMemberMenuAction-75" class="classGroup" transform="translate(3484.550001144409,611.6999998092651 )"><rect x="0" y="0" width="128.4000015258789" height="31.600000381469727" class=" "></rect><text y="15" x="0"><tspan class="title" x="6.1999969482421875">EditMemberMenuAction</tspan></text><line x1="0" y1="22" y2="22" x2="128.39999389648438"></line><text x="5" y="32" fill="white" class="classText"></text><line x1="0" y1="27" y2="27" x2="128.39999389648438"></line><text x="5" y="42" fill="white" class="classText"></text></g><g id="classid-HandlePaymentMenuAction-76" class="classGroup" transform="translate(1730.150011062622,350.69999980926514 )"><rect x="0" y="0" width="146" height="31.600000381469727" class=" "></rect><text y="15" x="0"><tspan class="title" x="6.1999969482421875">HandlePaymentMenuAction</tspan></text><line x1="0" y1="22" y2="22" x2="146"></line><text x="5" y="32" fill="white" class="classText"></text><line x1="0" y1="27" y2="27" x2="146"></line><text x="5" y="42" fill="white" class="classText"></text></g><g id="classid-MemberSubMenuMenuAction-77" class="classGroup" transform="translate(4435.499980926514,611.6999998092651 )"><rect x="0" y="0" width="154" height="31.600000381469727" class=" "></rect><text y="15" x="0"><tspan class="title" x="6.1999969482421875">MemberSubMenuMenuAction</tspan></text><line x1="0" y1="22" y2="22" x2="154"></line><text x="5" y="32" fill="white" class="classText"></text><line x1="0" y1="27" y2="27" x2="154"></line><text x="5" y="42" fill="white" class="classText"></text></g><g id="classid-PaymentRequestMenuAction-78" class="classGroup" transform="translate(3076.600004196167,611.6999998092651 )"><rect x="0" y="0" width="150.8000030517578" height="31.600000381469727" class=" "></rect><text y="15" x="0"><tspan class="title" x="6.200004577636719">PaymentRequestMenuAction</tspan></text><line x1="0" y1="22" y2="22" x2="150.8000030517578"></line><text x="5" y="32" fill="white" class="classText"></text><line x1="0" y1="27" y2="27" x2="150.8000030517578"></line><text x="5" y="42" fill="white" class="classText"></text></g><g id="classid-PaymentSubMenuMenuAction-79" class="classGroup" transform="translate(4229.099987030029,611.6999998092651 )"><rect x="0" y="0" width="156.39999389648438" height="31.600000381469727" class=" "></rect><text y="15" x="0"><tspan class="title" x="6.1999969482421875">PaymentSubMenuMenuAction</tspan></text><line x1="0" y1="22" y2="22" x2="156.39999389648438"></line><text x="5" y="32" fill="white" class="classText"></text><line x1="0" y1="27" y2="27" x2="156.39999389648438"></line><text x="5" y="42" fill="white" class="classText"></text></g><g id="classid-PredictIncomeDefinedMenuAction-80" class="classGroup" transform="translate(2976.7500019073486,350.69999980926514 )"><rect x="0" y="0" width="178.8000030517578" height="31.600000381469727" class=" "></rect><text y="15" x="0"><tspan class="title" x="6.200004577636719">PredictIncomeDefinedMenuAction</tspan></text><line x1="0" y1="22" y2="22" x2="178.8000030517578"></line><text x="5" y="32" fill="white" class="classText"></text><line x1="0" y1="27" y2="27" x2="178.8000030517578"></line><text x="5" y="42" fill="white" class="classText"></text></g><g id="classid-PredictionController-81" class="classGroup" transform="translate(2729.2500019073486,582 )"><rect x="0" y="0" width="175.8000030517578" height="91" class=" "></rect><text y="15" x="0"><tspan class="title" x="37.5">PredictionController</tspan></text><line x1="0" y1="22" y2="22" x2="175.8000030517578"></line><text x="5" y="32" fill="white" class="classText"><tspan x="5">-PredictionView</tspan><tspan x="5" dy="10">-MemberController</tspan></text><line x1="0" y1="49.00000190734863" y2="49.00000190734863" x2="175.8000030517578"></line><text x="5" y="64.00000190734863" fill="white" class="classText"><tspan x="5">+predictIncome()</tspan><tspan x="5" dy="10">+predictIncome(days)</tspan><tspan x="5" dy="10">-predictIncomeInXDays(days) : int</tspan></text></g><g id="classid-PredictIncomeMenuAction-82" class="classGroup" transform="translate(2497.5500049591064,350.69999980926514 )"><rect x="0" y="0" width="141.1999969482422" height="31.600000381469727" class=" "></rect><text y="15" x="0"><tspan class="title" x="6.1999969482421875">PredictIncomeMenuAction</tspan></text><line x1="0" y1="22" y2="22" x2="141.1999969482422"></line><text x="5" y="32" fill="white" class="classText"></text><line x1="0" y1="27" y2="27" x2="141.1999969482422"></line><text x="5" y="42" fill="white" class="classText"></text></g><g id="classid-RenewalRequestMenuAction-83" class="classGroup" transform="translate(1636.1000022888184,79.69999980926514 )"><rect x="0" y="0" width="150" height="31.600000381469727" class=" "></rect><text y="15" x="0"><tspan class="title" x="6.1999969482421875">RenewalRequestMenuAction</tspan></text><line x1="0" y1="22" y2="22" x2="150"></line><text x="5" y="32" fill="white" class="classText"></text><line x1="0" y1="27" y2="27" x2="150"></line><text x="5" y="42" fill="white" class="classText"></text></g><g id="classid-MeberController-84" class="classGroup" transform="translate(2688.7500019073486,350.69999980926514 )"><rect x="0" y="0" width="92.4000015258789" height="31.600000381469727" class=" "></rect><text y="15" x="0"><tspan class="title" x="6.200000762939453">MeberController</tspan></text><line x1="0" y1="22" y2="22" x2="92.4000015258789"></line><text x="5" y="32" fill="white" class="classText"></text><line x1="0" y1="27" y2="27" x2="92.4000015258789"></line><text x="5" y="42" fill="white" class="classText"></text></g><g id="classid-SearchMemberMenuAction-85" class="classGroup" transform="translate(2306.8500003814697,611.6999998092651 )"><rect x="0" y="0" width="142.8000030517578" height="31.600000381469727" class=" "></rect><text y="15" x="0"><tspan class="title" x="6.200004577636719">SearchMemberMenuAction</tspan></text><line x1="0" y1="22" y2="22" x2="142.8000030517578"></line><text x="5" y="32" fill="white" class="classText"></text><line x1="0" y1="27" y2="27" x2="142.8000030517578"></line><text x="5" y="42" fill="white" class="classText"></text></g><g id="classid-TopResultsMenuAction-86" class="classGroup" transform="translate(3818.799997329712,79.69999980926514 )"><rect x="0" y="0" width="122" height="31.600000381469727" class=" "></rect><text y="15" x="0"><tspan class="title" x="6.200000762939453">TopResultsMenuAction</tspan></text><line x1="0" y1="22" y2="22" x2="122"></line><text x="5" y="32" fill="white" class="classText"></text><line x1="0" y1="27" y2="27" x2="122"></line><text x="5" y="42" fill="white" class="classText"></text></g><g id="classid-LeaderController-87" class="classGroup" transform="translate(2831.1500034332275,350.69999980926514 )"><rect x="0" y="0" width="95.5999984741211" height="31.600000381469727" class=" "></rect><text y="15" x="0"><tspan class="title" x="6.200000762939453">LeaderController</tspan></text><line x1="0" y1="22" y2="22" x2="95.5999984741211"></line><text x="5" y="32" fill="white" class="classText"></text><line x1="0" y1="27" y2="27" x2="95.5999984741211"></line><text x="5" y="42" fill="white" class="classText"></text></g><g id="classid-ViewMemberMenuAction-88" class="classGroup" transform="translate(2124.4500064849854,611.6999998092651 )"><rect x="0" y="0" width="132.4000015258789" height="31.600000381469727" class=" "></rect><text y="15" x="0"><tspan class="title" x="6.1999969482421875">ViewMemberMenuAction</tspan></text><line x1="0" y1="22" y2="22" x2="132.39999389648438"></line><text x="5" y="32" fill="white" class="classText"></text><line x1="0" y1="27" y2="27" x2="132.39999389648438"></line><text x="5" y="42" fill="white" class="classText"></text></g><g id="classid-ViewResultsMenuAction-89" class="classGroup" transform="translate(3342.950002670288,350.69999980926514 )"><rect x="0" y="0" width="128.4000015258789" height="31.600000381469727" class=" "></rect><text y="15" x="0"><tspan class="title" x="6.1999969482421875">ViewResultsMenuAction</tspan></text><line x1="0" y1="22" y2="22" x2="128.39999389648438"></line><text x="5" y="32" fill="white" class="classText"></text><line x1="0" y1="27" y2="27" x2="128.39999389648438"></line><text x="5" y="42" fill="white" class="classText"></text></g><g id="classid-MemberView-90" class="classGroup" transform="translate(5311.799983024597,1234 )"><rect x="0" y="0" width="199.8000030517578" height="49" class=" "></rect><text y="15" x="0"><tspan class="title" x="68.70000076293945">MemberView</tspan></text><line x1="0" y1="22" y2="22" x2="199.8000030517578"></line><text x="5" y="32" fill="white" class="classText"></text><line x1="0" y1="27" y2="27" x2="199.8000030517578"></line><text x="5" y="42" fill="white" class="classText"><tspan x="5">displayMember(member, columnWidth)</tspan></text></g><g id="classid-MembershipController-91" class="classGroup" transform="translate(3127.8500080108643,1204 )"><rect x="0" y="0" width="229.39999389648438" height="109" class=" "></rect><text y="15" x="0"><tspan class="title" x="59.89999771118164">MembershipController</tspan></text><line x1="0" y1="22" y2="22" x2="229.39999389648438"></line><text x="5" y="32" fill="white" class="classText"></text><line x1="0" y1="27" y2="27" x2="229.39999389648438"></line><text x="5" y="42" fill="white" class="classText"><tspan x="5">~addActiveMembership(member)</tspan><tspan x="5" dy="10">~addPassiveMembership(member)</tspan><tspan x="5" dy="10">-generateMembershipId(member) : String</tspan><tspan x="5" dy="10">~renewMembership(member, durationYears)</tspan><tspan x="5" dy="10">-createNewMembership() : MembershipModel</tspan><tspan x="5" dy="10">~membershipExpiresInDays(member, days)</tspan><tspan x="5" dy="10">~membershipUnpaid(member) : boolean</tspan></text></g><g id="classid-MemberModel-92" class="classGroup" transform="translate(792.5000019073486,1363 )"><rect x="0" y="0" width="227" height="191" class=" "></rect><text y="15" x="0"><tspan class="title" x="79.5">MemberModel</tspan></text><line x1="0" y1="22" y2="22" x2="227"></line><text x="5" y="32" fill="white" class="classText"><tspan x="5">-id:String</tspan><tspan x="5" dy="10">-name:String</tspan><tspan x="5" dy="10">-Create_Date:LocalDate</tspan><tspan x="5" dy="10">-birthdate:LocalDate</tspan><tspan x="5" dy="10">-gender:GenderType</tspan><tspan x="5" dy="10">-phonenumber:String</tspan><tspan x="5" dy="10">-mail:String</tspan><tspan x="5" dy="10">-ageGroup:String</tspan><tspan x="5" dy="10">-competitive:boolean</tspan><tspan x="5" dy="10">-disciplines:ArrayList&lt;DisciplineModel&gt;</tspan><tspan x="5" dy="10">-memberships:ArrayList&lt;MembershipModel&gt;</tspan><tspan x="5" dy="10">-deleted:boolean</tspan></text><line x1="0" y1="148.99999237060547" y2="148.99999237060547" x2="227"></line><text x="5" y="163.99999237060547" fill="white" class="classText"><tspan x="5">+getAgeGroup() : String</tspan><tspan x="5" dy="10">+getLatestMembership() : MembershipModel</tspan><tspan x="5" dy="10">+getAge() : int</tspan></text></g><g id="classid-PaymentRequestService-93" class="classGroup" transform="translate(553.149995803833,1236.7000007629395 )"><rect x="0" y="0" width="139.8000030517578" height="43.599998474121094" class=" "></rect><text y="15" x="0"><tspan class="title" x="11.5">PaymentRequestService</tspan></text><line x1="0" y1="22" y2="22" x2="139.8000030517578"></line><text x="5" y="32" fill="white" class="classText"><tspan x="5">-FILE_SERVICE:FileService</tspan></text><line x1="0" y1="39" y2="39" x2="139.8000030517578"></line><text x="5" y="54" fill="white" class="classText"></text></g><g id="classid-MemberService-94" class="classGroup" transform="translate(932.7500019073486,1236.7000007629395 )"><rect x="0" y="0" width="139.8000030517578" height="43.599998474121094" class=" "></rect><text y="15" x="0"><tspan class="title" x="32.30000305175781">MemberService</tspan></text><line x1="0" y1="22" y2="22" x2="139.8000030517578"></line><text x="5" y="32" fill="white" class="classText"><tspan x="5">-FILE_SERVICE:FileService</tspan></text><line x1="0" y1="39" y2="39" x2="139.8000030517578"></line><text x="5" y="54" fill="white" class="classText"></text></g><g id="classid-PaymentService-95" class="classGroup" transform="translate(0,1236.7000007629395 )"><rect x="0" y="0" width="139.8000030517578" height="43.599998474121094" class=" "></rect><text y="15" x="0"><tspan class="title" x="31.10000228881836">PaymentService</tspan></text><line x1="0" y1="22" y2="22" x2="139.8000030517578"></line><text x="5" y="32" fill="white" class="classText"><tspan x="5">-FILE_SERVICE:FileService</tspan></text><line x1="0" y1="39" y2="39" x2="139.8000030517578"></line><text x="5" y="54" fill="white" class="classText"></text></g><g id="classid-DisciplineController-96" class="classGroup" transform="translate(5850.899989128113,1604 )"><rect x="0" y="0" width="312.6000061035156" height="111" class=" "></rect><text y="15" x="0"><tspan class="title" x="107.50000381469727">DisciplineController</tspan></text><line x1="0" y1="22" y2="22" x2="312.6000061035156"></line><text x="5" y="32" fill="white" class="classText"><tspan x="5">-ArrayList&lt;DisciplineModel&gt;</tspan></text><line x1="0" y1="39" y2="39" x2="312.6000061035156"></line><text x="5" y="54" fill="white" class="classText"><tspan x="5">~chosenDiscipline(gender, style)</tspan><tspan x="5" dy="10">~styleToArray() : String[]</tspan><tspan x="5" dy="10">~distanceToArray() : Stirng[]</tspan><tspan x="5" dy="10">~lookupDiscipline(disciplines,discipline) : booleam</tspan><tspan x="5" dy="10">~getDisciplineModelStyleAndDistance(gender) : DisciplineModel</tspan><tspan x="5" dy="10">~getDisciplineDesciptions(disciplines) : String[]</tspan></text></g><g id="classid-DisciplineModel-97" class="classGroup" transform="translate(4187.399998188019,1765 )"><rect x="0" y="0" width="126.19999694824219" height="53.599998474121094" class=" "></rect><text y="15" x="0"><tspan class="title" x="24.699996948242188">DisciplineModel</tspan></text><line x1="0" y1="22" y2="22" x2="126.19999694824219"></line><text x="5" y="32" fill="white" class="classText"><tspan x="5">-distance:DistanceType</tspan><tspan x="5" dy="10">-style:StyleType</tspan></text><line x1="0" y1="49.00000190734863" y2="49.00000190734863" x2="126.19999694824219"></line><text x="5" y="64.00000190734863" fill="white" class="classText"></text></g><g id="classid-PredictionView-98" class="classGroup" transform="translate(3638.649995803833,1242.6999998092651 )"><rect x="0" y="0" width="86.80000305175781" height="31.600000381469727" class=" "></rect><text y="15" x="0"><tspan class="title" x="6.200000762939453">PredictionView</tspan></text><line x1="0" y1="22" y2="22" x2="86.80000305175781"></line><text x="5" y="32" fill="white" class="classText"></text><line x1="0" y1="27" y2="27" x2="86.80000305175781"></line><text x="5" y="42" fill="white" class="classText"></text></g><g id="classid-CompetitionView-99" class="classGroup" transform="translate(5536.299983024597,924 )"><rect x="0" y="0" width="244.60000610351562" height="69" class=" "></rect><text y="15" x="0"><tspan class="title" x="81.10000228881836">CompetitionView</tspan></text><line x1="0" y1="22" y2="22" x2="244.60000610351562"></line><text x="5" y="32" fill="white" class="classText"></text><line x1="0" y1="27" y2="27" x2="244.60000610351562"></line><text x="5" y="42" fill="white" class="classText"><tspan x="5">+displayCompetitionResults(competitionResults)</tspan><tspan x="5" dy="10">+displayTopResults(competitionResults)</tspan><tspan x="5" dy="10">+displayCompetition(competition, columnWidth)</tspan></text></g><g id="classid-LeaderboardController-100" class="classGroup" transform="translate(2138.150011062622,291 )"><rect x="0" y="0" width="309.3999938964844" height="151" class=" "></rect><text y="15" x="0"><tspan class="title" x="98.69999694824219">LeaderboardController</tspan></text><line x1="0" y1="22" y2="22" x2="309.3999938964844"></line><text x="5" y="32" fill="white" class="classText"><tspan x="5">-CompetitionView</tspan><tspan x="5" dy="10">-CompetitionController</tspan><tspan x="5" dy="10">-ArrayList&lt;CompetitionModel&gt;</tspan></text><line x1="0" y1="59" y2="59" x2="309.3999938964844"></line><text x="5" y="74" fill="white" class="classText"><tspan x="5">-findTop(style, distance, amount, genderType, ageGroupType)</tspan><tspan x="5" dy="10">-memberExist(finals, member) : boolean</tspan><tspan x="5" dy="10">-findDiscipline(style, distance)</tspan><tspan x="5" dy="10">+displayTopResults(amount)</tspan><tspan x="5" dy="10">-displayTop(style,distance,amount,genderType,ageGroupType)</tspan><tspan x="5" dy="10">-getLeaderboardContent(resultModels)</tspan><tspan x="5" dy="10">-getLeaderboardHeader() : String[]</tspan><tspan x="5" dy="10">~ageGroupToArray() : String[]</tspan></text></g><g id="classid-PaymentView-101" class="classGroup" transform="translate(4852.999979972839,1229 )"><rect x="0" y="0" width="151.8000030517578" height="59" class=" "></rect><text y="15" x="0"><tspan class="title" x="43.5">PaymentView</tspan></text><line x1="0" y1="22" y2="22" x2="151.8000030517578"></line><text x="5" y="32" fill="white" class="classText"></text><line x1="0" y1="27" y2="27" x2="151.8000030517578"></line><text x="5" y="42" fill="white" class="classText"><tspan x="5">+displayPayments(payments)</tspan><tspan x="5" dy="10">+displayArrears(arrears)</tspan></text></g><g id="classid-CompetitionModel-102" class="classGroup" transform="translate(108.65000343322754,916.7000007629395 )"><rect x="0" y="0" width="165.39999389648438" height="83.5999984741211" class=" "></rect><text y="15" x="0"><tspan class="title" x="38.69999694824219">CompetitionModel</tspan></text><line x1="0" y1="22" y2="22" x2="165.39999389648438"></line><text x="5" y="32" fill="white" class="classText"><tspan x="5">-id:String</tspan><tspan x="5" dy="10">-startDate:LocalDate</tspan><tspan x="5" dy="10">-name:String</tspan><tspan x="5" dy="10">-startTime:LocalTime</tspan><tspan x="5" dy="10">-results:ArrayList&lt;ResultModel&gt;</tspan></text><line x1="0" y1="79" y2="79" x2="165.39999389648438"></line><text x="5" y="94" fill="white" class="classText"></text></g><g id="classid-CompetitionService-103" class="classGroup" transform="translate(742.9499988555908,1236.7000007629395 )"><rect x="0" y="0" width="139.8000030517578" height="43.599998474121094" class=" "></rect><text y="15" x="0"><tspan class="title" x="22.300003051757812">CompetitionService</tspan></text><line x1="0" y1="22" y2="22" x2="139.8000030517578"></line><text x="5" y="32" fill="white" class="classText"><tspan x="5">-FILE_SERVICE:FileService</tspan></text><line x1="0" y1="39" y2="39" x2="139.8000030517578"></line><text x="5" y="54" fill="white" class="classText"></text></g><g id="classid-ResultModel-104" class="classGroup" transform="translate(336.9499988555908,1216.7000007629395 )"><rect x="0" y="0" width="166.1999969482422" height="83.5999984741211" class=" "></rect><text y="15" x="0"><tspan class="title" x="53.49999809265137">ResultModel</tspan></text><line x1="0" y1="22" y2="22" x2="166.1999969482422"></line><text x="5" y="32" fill="white" class="classText"><tspan x="5">-member:MemberModel</tspan><tspan x="5" dy="10">-resultTime:LocalTime</tspan><tspan x="5" dy="10">-discipline:DisciplineModel</tspan><tspan x="5" dy="10">-competition:CompetitionModel</tspan><tspan x="5" dy="10">-placement:String</tspan></text><line x1="0" y1="79" y2="79" x2="166.1999969482422"></line><text x="5" y="94" fill="white" class="classText"></text></g><g id="classid-MembershipModel-105" class="classGroup" transform="translate(2197.0999965667725,1612.7000007629395 )"><rect x="0" y="0" width="135" height="93.5999984741211" class=" "></rect><text y="15" x="0"><tspan class="title" x="23.099998474121094">MembershipModel</tspan></text><line x1="0" y1="22" y2="22" x2="135"></line><text x="5" y="32" fill="white" class="classText"><tspan x="5">-id:String</tspan><tspan x="5" dy="10">-creationDate:LocalDate</tspan><tspan x="5" dy="10">-startingDate:LocalDate</tspan><tspan x="5" dy="10">-expirtingDate:LocalDate</tspan><tspan x="5" dy="10">-paid:boolean</tspan><tspan x="5" dy="10">-active:boolean</tspan></text><line x1="0" y1="89" y2="89" x2="135"></line><text x="5" y="104" fill="white" class="classText"></text></g><g id="classid-MenuView-106" class="classGroup" transform="translate(5054.799983024597,1234 )"><rect x="0" y="0" width="207" height="49" class=" "></rect><text y="15" x="0"><tspan class="title" x="78.70000076293945">MenuView</tspan></text><line x1="0" y1="22" y2="22" x2="207"></line><text x="5" y="32" fill="white" class="classText"></text><line x1="0" y1="27" y2="27" x2="207"></line><text x="5" y="42" fill="white" class="classText"><tspan x="5">+printMenuOptions(header, menuAction)</tspan></text></g><g id="classid-MenuModel-107" class="classGroup" transform="translate(3427.2500019073486,1226.7000007629395 )"><rect x="0" y="0" width="161.39999389648438" height="63.599998474121094" class=" "></rect><text y="15" x="0"><tspan class="title" x="53.09999656677246">MenuModel</tspan></text><line x1="0" y1="22" y2="22" x2="161.39999389648438"></line><text x="5" y="32" fill="white" class="classText"><tspan x="5">-MENU_ACTIONS:MenuAction[]</tspan><tspan x="5" dy="10">-MENU_HEADER:String</tspan><tspan x="5" dy="10">-LOAD_TEXT:String</tspan></text><line x1="0" y1="59" y2="59" x2="161.39999389648438"></line><text x="5" y="74" fill="white" class="classText"></text></g><g id="classid-InputModel-108" class="classGroup" transform="translate(226.35000038146973,563 )"><rect x="0" y="0" width="250.1999969482422" height="129" class=" "></rect><text y="15" x="0"><tspan class="title" x="97.49999809265137">InputModel</tspan></text><line x1="0" y1="22" y2="22" x2="250.1999969482422"></line><text x="5" y="32" fill="white" class="classText"></text><line x1="0" y1="27" y2="27" x2="250.1999969482422"></line><text x="5" y="42" fill="white" class="classText"><tspan x="5" style="text-decoration:underline;">+isValidDate(date) : boolean</tspan><tspan x="5" style="text-decoration:underline;" dy="10">+isValidCompetitionTime(time) : boolean</tspan><tspan x="5" style="text-decoration:underline;" dy="10">+isValidCompetitionResultTime(time) : boolean</tspan><tspan x="5" style="text-decoration:underline;" dy="10">+isValidName(text) : boolean</tspan><tspan x="5" style="text-decoration:underline;" dy="10">+isValidMail(text) : boolean</tspan><tspan x="5" style="text-decoration:underline;" dy="10">+isValidPhoneNumber(text) : boolean</tspan><tspan x="5" style="text-decoration:underline;" dy="10">+isValidRange(in, min, max) : boolean</tspan><tspan x="5" style="text-decoration:underline;" dy="10">+isValidMemberId(in, members) : boolean</tspan><tspan x="5" style="text-decoration:underline;" dy="10">+isValidCompetitionId(in, competitions) : boolean</tspan></text></g><g id="classid-DistanceType-109" class="classGroup" transform="translate(4082.300003528595,1868.599998474121 )"><rect x="0" y="0" width="147.59999084472656" height="41.60000038146973" class=" "></rect><text y="15" x="0"><tspan x="38.59999465942383">«Enumaration»</tspan><tspan class="title" dy="10" x="41.399993896484375">DistanceType</tspan></text><line x1="0" y1="32" y2="32" x2="147.59999084472656"></line><text x="5" y="42" fill="white" class="classText"></text><line x1="0" y1="37" y2="37" x2="147.59999084472656"></line><text x="5" y="52" fill="white" class="classText"></text></g><g id="classid-StyleType-110" class="classGroup" transform="translate(4279.8999943733215,1868.599998474121 )"><rect x="0" y="0" width="130" height="41.60000038146973" class=" "></rect><text y="15" x="0"><tspan x="29.799999237060547">«Enumaration»</tspan><tspan class="title" dy="10" x="41.39999961853027">StyleType</tspan></text><line x1="0" y1="32" y2="32" x2="130"></line><text x="5" y="42" fill="white" class="classText"></text><line x1="0" y1="37" y2="37" x2="130"></line><text x="5" y="52" fill="white" class="classText"></text></g><g id="classid-PricingModel-111" class="classGroup" transform="translate(1122.5500049591064,1234 )"><rect x="0" y="0" width="193.39999389648438" height="49" class=" "></rect><text y="15" x="0"><tspan class="title" x="64.69999694824219">PricingModel</tspan></text><line x1="0" y1="22" y2="22" x2="193.39999389648438"></line><text x="5" y="32" fill="white" class="classText"></text><line x1="0" y1="27" y2="27" x2="193.39999389648438"></line><text x="5" y="42" fill="white" class="classText"><tspan x="5">+calculateMemberPrice(member) : int</tspan></text></g><g id="classid-InputController-112" class="classGroup" transform="translate(3009.250011444092,0 )"><rect x="0" y="0" width="237.39999389648438" height="191" class=" "></rect><text y="15" x="0"><tspan class="title" x="80.69999694824219">InputController</tspan></text><line x1="0" y1="22" y2="22" x2="237.39999389648438"></line><text x="5" y="32" fill="white" class="classText"><tspan x="5">-Scanner</tspan><tspan x="5" dy="10">-InputView</tspan></text><line x1="0" y1="49.00000190734863" y2="49.00000190734863" x2="237.39999389648438"></line><text x="5" y="64.00000190734863" fill="white" class="classText"><tspan x="5">~promptYesNo() : boolean</tspan><tspan x="5" dy="10">~validateInteger() : int</tspan><tspan x="5" dy="10">~validateOptionRange(max) : int</tspan><tspan x="5" dy="10">~validateName() : String</tspan><tspan x="5" dy="10">~validateMail() : String</tspan><tspan x="5" dy="10">~validateDate() : String</tspan><tspan x="5" dy="10">~validatePhoneNumber() : String</tspan><tspan x="5" dy="10">~validateMemberId(members) : String</tspan><tspan x="5" dy="10">~validateSwimEvent(SwimEvents) : SwimEvent</tspan><tspan x="5" dy="10">~validateResultTime() : String</tspan><tspan x="5" dy="10">~validateSwimEventTime() : String</tspan><tspan x="5" dy="10">~validatePlacement() : String</tspan><tspan x="5" dy="10">~anyString() : String</tspan></text></g><g id="classid-FileService-113" class="classGroup" transform="translate(477.1500015258789,1431.7000007629395 )"><rect x="0" y="0" width="77.4000015258789" height="53.599998474121094" class=" "></rect><text y="15" x="0"><tspan class="title" x="11.5">FileService</tspan></text><line x1="0" y1="22" y2="22" x2="77.4000015258789"></line><text x="5" y="32" fill="white" class="classText"><tspan x="5">-FILE:File</tspan><tspan x="5" dy="10">-PATH:String</tspan></text><line x1="0" y1="49.00000190734863" y2="49.00000190734863" x2="77.4000015258789"></line><text x="5" y="64.00000190734863" fill="white" class="classText"></text></g><g id="classid-CompetionService-114" class="classGroup" transform="translate(55.94999885559082,611.6999998092651 )"><rect x="0" y="0" width="100.4000015258789" height="31.600000381469727" class=" "></rect><text y="15" x="0"><tspan class="title" x="6.200000762939453">CompetionService</tspan></text><line x1="0" y1="22" y2="22" x2="100.4000015258789"></line><text x="5" y="32" fill="white" class="classText"></text><line x1="0" y1="27" y2="27" x2="100.4000015258789"></line><text x="5" y="42" fill="white" class="classText"></text></g><g id="classid-View-115" class="classGroup" transform="translate(4702.849986076355,1437.6999998092651 )"><rect x="0" y="0" width="85.20000457763672" height="41.60000038146973" class=" "></rect><text y="15" x="0"><tspan x="17.800003051757812">«abstract»</tspan><tspan class="title" dy="10" x="31.000001907348633">View</tspan></text><line x1="0" y1="32" y2="32" x2="85.20000457763672"></line><text x="5" y="42" fill="white" class="classText"></text><line x1="0" y1="37" y2="37" x2="85.20000457763672"></line><text x="5" y="52" fill="white" class="classText"></text></g><g id="classid-InputView-116" class="classGroup" transform="translate(5561.599986076355,1242.6999998092651 )"><rect x="0" y="0" width="62" height="31.600000381469727" class=" "></rect><text y="15" x="0"><tspan class="title" x="6.200000762939453">InputView</tspan></text><line x1="0" y1="22" y2="22" x2="62"></line><text x="5" y="32" fill="white" class="classText"></text><line x1="0" y1="27" y2="27" x2="62"></line><text x="5" y="42" fill="white" class="classText"></text></g><g id="classid-ColorTextType-117" class="classGroup" transform="translate(3575.3999996185303,1643.6999998092651 )"><rect x="0" y="0" width="82" height="31.600000381469727" class=" "></rect><text y="15" x="0"><tspan class="title" x="6.200000762939453">ColorTextType</tspan></text><line x1="0" y1="22" y2="22" x2="82"></line><text x="5" y="32" fill="white" class="classText"></text><line x1="0" y1="27" y2="27" x2="82"></line><text x="5" y="42" fill="white" class="classText"></text></g><g id="classid-ColorKeyType-118" class="classGroup" transform="translate(5607.849989891052,1638.6999998092651 )"><rect x="0" y="0" width="149.1999969482422" height="41.60000038146973" class=" "></rect><text y="15" x="0"><tspan x="39.39999771118164">«Enumaration»</tspan><tspan class="title" dy="10" x="41.39999771118164">ColorKeyType</tspan></text><line x1="0" y1="32" y2="32" x2="149.1999969482422"></line><text x="5" y="42" fill="white" class="classText"></text><line x1="0" y1="37" y2="37" x2="149.1999969482422"></line><text x="5" y="52" fill="white" class="classText"></text></g><g id="classid-ResultController-119" class="classGroup" transform="translate(3990.799997329712,71 )"><rect x="0" y="0" width="193.39999389648438" height="49" class=" "></rect><text y="15" x="0"><tspan class="title" x="56.69999694824219">ResultController</tspan></text><line x1="0" y1="22" y2="22" x2="193.39999389648438"></line><text x="5" y="32" fill="white" class="classText"></text><line x1="0" y1="27" y2="27" x2="193.39999389648438"></line><text x="5" y="42" fill="white" class="classText"><tspan x="5">~addResultTime(member, swimevent)</tspan></text></g><g id="classid-GenderType-120" class="classGroup" transform="translate(4234.199991226196,74.69999980926514 )"><rect x="0" y="0" width="142" height="41.60000038146973" class=" "></rect><text y="15" x="0"><tspan x="35.79999923706055">«Enumaration»</tspan><tspan class="title" dy="10" x="41.39999961853027">GenderType</tspan></text><line x1="0" y1="32" y2="32" x2="142"></line><text x="5" y="42" fill="white" class="classText"></text><line x1="0" y1="37" y2="37" x2="142"></line><text x="5" y="52" fill="white" class="classText"></text></g><g id="classid-ConfigService-121" class="classGroup" transform="translate(4426.199991226196,73.70000076293945 )"><rect x="0" y="0" width="79.5999984741211" height="43.599998474121094" class=" "></rect><text y="15" x="0"><tspan class="title" x="6.200000762939453">ConfigService</tspan></text><line x1="0" y1="22" y2="22" x2="79.5999984741211"></line><text x="5" y="32" fill="white" class="classText"><tspan x="5">-KEY:String</tspan></text><line x1="0" y1="39" y2="39" x2="79.5999984741211"></line><text x="5" y="54" fill="white" class="classText"></text></g><g id="classid-ExitMenuAction-122" class="classGroup" transform="translate(4555.799989700317,79.69999980926514 )"><rect x="0" y="0" width="88.4000015258789" height="31.600000381469727" class=" "></rect><text y="15" x="0"><tspan class="title" x="6.200000762939453">ExitMenuAction</tspan></text><line x1="0" y1="22" y2="22" x2="88.4000015258789"></line><text x="5" y="32" fill="white" class="classText"></text><line x1="0" y1="27" y2="27" x2="88.4000015258789"></line><text x="5" y="42" fill="white" class="classText"></text></g><g id="classid-MenuAction-123" class="classGroup" transform="translate(4694.199991226196,79.69999980926514 )"><rect x="0" y="0" width="70" height="31.600000381469727" class=" "></rect><text y="15" x="0"><tspan class="title" x="6.200000762939453">MenuAction</tspan></text><line x1="0" y1="22" y2="22" x2="70"></line><text x="5" y="32" fill="white" class="classText"></text><line x1="0" y1="27" y2="27" x2="70"></line><text x="5" y="42" fill="white" class="classText"></text></g><path d="M4879.2999811172485,382.30000019073486L4879.2999811172485,404.75000015894574C4879.2999811172485,427.20000012715656,4879.2999811172485,472.1000000635783,4879.2999811172485,510.3333333333333C4879.2999811172485,548.5666666030884,4879.2999811172485,580.1333332061768,4879.2999811172485,595.916666507721L4879.2999811172485,611.6999998092651" id="edge0" class="relation" marker-end="url(#dependencyEnd)"></path><path d="M4879.2999811172485,643.3000001907349L4879.2999811172485,659.083333492279C4879.2999811172485,674.8666667938232,4879.2999811172485,706.4333333969116,4854.347600151893,752.2166666984558C4829.395219186536,798,4779.490457255824,858,4754.538076290469,888L4729.585695325112,918" id="edge1" class="relation" marker-end="url(#dependencyEnd)"></path><path d="M1282.1254401247334,111.30000019073486L1325.6128675971288,128.7500001589457C1369.1002950695245,146.20000012715658,1456.0751500143153,181.10000006357828,1499.562577486711,202.7166666984558C1543.0500049591064,224.33333333333334,1543.0500049591064,232.66666666666666,1543.0500049591064,236.83333333333334L1543.0500049591064,241" id="edge2" class="relation" marker-end="url(#dependencyEnd)"></path><path d="M3854.1499919891357,642.2285669400976L3787.1749935150146,658.1904724500813C3720.1999950408936,674.1523779600651,3586.2499980926514,706.0761889800325,3457.2833331425986,746.6118696110449C3328.3166681925454,787.1475502420575,3204.333335240682,836.2951004841148,3142.34166876475,860.8688756051434L3080.3500022888184,885.4426507261721" id="edge3" class="relation" marker-end="url(#dependencyEnd)"></path><path d="M4726.499980926514,643.3000001907349L4726.499980926514,659.083333492279C4726.499980926514,674.8666667938232,4726.499980926514,706.4333333969116,4722.336715633366,752.2166666984558C4718.1734503402195,798,4709.846919753924,858,4705.683654460777,888L4701.52038916763,918" id="edge4" class="relation" marker-end="url(#dependencyEnd)"></path><path d="M3624.3499965667725,382.30000019073486L3624.3499965667725,404.75000015894574C3624.3499965667725,427.20000012715656,3624.3499965667725,472.1000000635783,3586.4128631676954,510.3333333333333C3548.475729768618,548.5666666030884,3472.6014629704637,580.1333332061768,3434.664329571386,595.916666507721L3396.7271961723086,611.6999998092651" id="edge5" class="relation" marker-end="url(#dependencyEnd)"></path><path d="M3678.864835738359,643.3000001907349L3624.2373634967685,659.083333492279C3569.609891255179,674.8666667938232,3460.3549467719986,706.4333333969116,3360.602474530408,744.0825329401231C3260.8500022888184,781.7317324833344,3170.6000022888184,825.463464966669,3125.4750022888184,847.3293312083362L3080.3500022888184,869.1951974500033" id="edge6" class="relation" marker-end="url(#dependencyEnd)"></path><path d="M1997.150011062622,382.30000019073486L1997.150011062622,404.75000015894574C1997.150011062622,427.20000012715656,1997.150011062622,472.1000000635783,1993.492394169711,498.7166666984558C1989.8347772768,525.3333333333334,1982.519543490978,533.6666666666666,1978.861926598067,537.8333333333334L1975.204309705156,542" id="edge7" class="relation" marker-end="url(#dependencyEnd)"></path><path d="M3505.846921578921,643.3000001907349L3462.989102078707,659.083333492279C3420.131282578493,674.8666667938232,3334.4156435780646,706.4333333969116,3263.499490363048,739.760584153211C3192.5833371480308,773.0878349095105,3136.4666697184243,808.1756698190211,3108.4083360036216,825.7195872737763L3080.3500022888184,843.2635047285316" id="edge8" class="relation" marker-end="url(#dependencyEnd)"></path><path d="M1803.150011062622,382.30000019073486L1803.150011062622,404.75000015894574C1803.150011062622,427.20000012715656,1803.150011062622,472.1000000635783,1806.8076279555332,498.7166666984558C1810.4652448484442,525.3333333333334,1817.780478634266,533.6666666666666,1821.4380955271772,537.8333333333334L1825.0957124200881,542" id="edge9" class="relation" marker-end="url(#dependencyEnd)"></path><path d="M4512.499980926514,643.3000001907349L4512.499980926514,659.083333492279C4512.499980926514,674.8666667938232,4512.499980926514,706.4333333969116,4537.452361891869,752.2166666984558C4562.404742857226,798,4612.309504787938,858,4637.261885753293,888L4662.21426671865,918" id="edge10" class="relation" marker-end="url(#dependencyEnd)"></path><path d="M3159.049236740009,643.3000001907349L3166.0910317610833,659.083333492279C3173.1328267821577,674.8666667938232,3187.2164168243066,706.4333333969116,3174.0998777491077,736.7782147971694C3160.9833386739097,767.1230961974273,3120.666670481364,796.2461923948548,3100.5083363850913,810.8077404935684L3080.3500022888184,825.3692885922821" id="edge11" class="relation" marker-end="url(#dependencyEnd)"></path><path d="M4307.2999839782715,643.3000001907349L4307.2999839782715,659.083333492279C4307.2999839782715,674.8666667938232,4307.2999839782715,706.4333333969116,4364.699983358383,754.7866614478235C4422.099982738495,803.1399894987352,4536.899981498718,868.2799789974703,4594.29998087883,900.8499737468379L4651.699980258942,933.4199684962056" id="edge12" class="relation" marker-end="url(#dependencyEnd)"></path><path d="M3066.1500034332275,382.30000019073486L3066.1500034332275,404.75000015894574C3066.1500034332275,427.20000012715656,3066.1500034332275,472.1000000635783,3039.3000036875405,506.46536136471445C3012.450003941854,540.8307226658507,2958.75000445048,564.6614453317012,2931.9000047047934,576.5768066646265L2905.0500049591064,588.4921679975517" id="edge13" class="relation" marker-end="url(#dependencyEnd)"></path><path d="M2568.1500034332275,382.30000019073486L2568.1500034332275,404.75000015894574C2568.1500034332275,427.20000012715656,2568.1500034332275,472.1000000635783,2595.0000031789145,506.46536136471445C2621.850002924601,540.8307226658507,2675.550002415975,564.6614453317012,2702.4000021616616,576.5768066646265L2729.2500019073486,588.4921679975517" id="edge14" class="relation" marker-end="url(#dependencyEnd)"></path><path d="M1786.1000022888184,104.32697660461277L1944.2416690190632,122.93914717051064C2102.383335749308,141.5513177364085,2418.6666692097983,178.77565886820426,2576.808335940043,219.837829402313C2734.950002670288,260.8999999364217,2734.950002670288,305.79999987284344,2734.950002670288,328.24999984105426L2734.950002670288,350.69999980926514" id="edge15" class="relation" marker-end="url(#dependencyEnd)"></path><path d="M2449.6500034332275,638.0420899684877L2562.483337084452,654.7017416404065C2675.3166707356772,671.3613933123252,2900.9833380381265,704.6806966561626,3006.1000045140586,728.7190346555582C3111.2166709899902,752.7573726549539,3095.7833366394043,767.5147453099075,3088.0666694641113,774.8934316373844L3080.3500022888184,782.2721179648613" id="edge16" class="relation" marker-end="url(#dependencyEnd)"></path><path d="M3818.799997329712,102.84425742041522L3662.158331553141,121.70354785034601C3505.516665776571,140.5628382802768,3192.233334223429,178.2814191401384,3035.591668446859,219.59070953828007C2878.950002670288,260.8999999364217,2878.950002670288,305.79999987284344,2878.950002670288,328.24999984105426L2878.950002670288,350.69999980926514" id="edge17" class="relation" marker-end="url(#dependencyEnd)"></path><path d="M2256.8500003814697,636.2900740679029L2384.5166680018106,653.2417283899191C2512.183335622152,670.1933827119352,2767.5166708628335,704.0966913559677,2892.787268814496,725.2150123446505C3018.057866766159,746.3333333333334,3013.2657274288026,754.6666666666666,3010.869657760124,758.8333333333334L3008.473588091446,763" id="edge18" class="relation" marker-end="url(#dependencyEnd)"></path><path d="M3407.1499996185303,382.30000019073486L3407.1499996185303,404.75000015894574C3407.1499996185303,427.20000012715656,3407.1499996185303,472.1000000635783,3400.2367571237833,510.3333333333333C3393.323514629036,548.5666666030884,3379.497029639542,580.1333332061768,3372.5837871447948,595.916666507721L3365.6705446500478,611.6999998092651" id="edge19" class="relation" marker-end="url(#dependencyEnd)"></path><path d="M3080.3500022888184,974.654135475985L3468.9083326657615,1008.7117795633208C3857.466663042704,1042.7694236506566,4634.58332379659,1110.8847118253282,5023.141654173533,1154.1090225793307C5411.699984550476,1197.3333333333333,5411.699984550476,1215.6666666666667,5411.699984550476,1224.8333333333333L5411.699984550476,1234" id="edge20" class="relation" marker-start="url(#aggregationStart)"></path><path d="M3080.3500022888184,1075.7818181870725L3107.3833360671997,1092.984848489227C3134.416669845581,1110.1878787913818,3188.4833374023438,1144.5939393956908,3215.516671180725,1165.963636364512C3242.5500049591064,1187.3333333333333,3242.5500049591064,1195.6666666666667,3242.5500049591064,1199.8333333333333L3242.5500049591064,1204" id="edge21" class="relation" marker-start="url(#aggregationStart)"></path><path d="M2711.7499961853027,990.1558136659552L2528.5083306630454,1021.6298447216294C2345.2666651407876,1053.1038757773033,1978.7833340962727,1116.0519378886518,1795.5416685740154,1160.7759689443258C1612.3000030517578,1205.5,1612.3000030517578,1232,1612.3000030517578,1258.5C1612.3000030517578,1285,1612.3000030517578,1311.5,1513.500002861023,1341.6060101991977C1414.700002670288,1371.7120203983957,1217.1000022888184,1405.4240407967911,1118.3000020980835,1422.2800509959889L1019.5000019073486,1439.1360611951866" id="edge22" class="relation" marker-end="url(#dependencyEnd)"></path><path d="M2711.7499961853027,976.3786408441758L2363.633329709371,1010.1488673701465C2015.5166632334392,1043.9190938961171,1319.2833302815754,1111.4595469480585,971.1666638056437,1154.8464402678526C623.0499973297119,1198.2333335876465,623.0499973297119,1217.466667175293,623.0499973297119,1227.0833339691162L623.0499973297119,1236.7000007629395" id="edge23" class="relation" marker-start="url(#aggregationStart)"></path><path d="M2711.7499961853027,979.9630562812798L2426.89999739329,1013.1358802343998C2142.049998601278,1046.3087041875199,1572.3500010172527,1112.65435209376,1287.50000222524,1155.4438428407032C1002.6500034332275,1198.2333335876465,1002.6500034332275,1217.466667175293,1002.6500034332275,1227.0833339691162L1002.6500034332275,1236.7000007629395" id="edge24" class="relation" marker-start="url(#aggregationStart)"></path><path d="M1996.8500080108643,638.1189810514633L2148.4416748682656,654.7658175428861C2300.0333417256675,671.4126540343088,2603.21667544047,704.7063270171544,2754.6127638791604,725.5198301752439C2906.0088523178506,746.3333333333334,2905.6176954804273,754.6666666666666,2905.422117061716,758.8333333333334L2905.2265386430045,763" id="edge25" class="relation" marker-start="url(#aggregationStart)"></path><path d="M1803.4500141143799,633.3381912892247L1514.5250120162964,650.781826074354C1225.600009918213,668.2254608594832,647.7500057220459,703.1127304297415,358.8250036239624,757.3063652148708C69.9000015258789,811.5,69.9000015258789,885,69.9000015258789,958.5C69.9000015258789,1032,69.9000015258789,1105.5,69.9000015258789,1151.8666667938232C69.9000015258789,1198.2333335876465,69.9000015258789,1217.466667175293,69.9000015258789,1227.0833339691162L69.9000015258789,1236.7000007629395" id="edge26" class="relation" marker-start="url(#aggregationStart)"></path><path d="M6007.199992179871,1715L6007.199992179871,1719.1666666666667C6007.199992179871,1723.3333333333333,6007.199992179871,1731.6666666666667,5724.933326005936,1744.1565604806917C5442.666659832001,1756.6464542947167,4878.133327484131,1773.2929085894332,4595.866661310196,1781.6161357367916L4313.599995136261,1789.9393628841501" id="edge27" class="relation" marker-end="url(#dependencyEnd)"></path><path d="M2905.0500049591064,638.7301424871696L3034.5500036875405,655.2751187393079C3164.050002415975,671.8200949914464,3423.0499998728433,704.9100474957231,3552.549998601278,758.2050237478616C3682.049997329712,811.5,3682.049997329712,885,3682.049997329712,958.5C3682.049997329712,1032,3682.049997329712,1105.5,3682.049997329712,1152.8666666348774C3682.049997329712,1200.2333332697551,3682.049997329712,1221.46666653951,3682.049997329712,1232.0833331743877L3682.049997329712,1242.6999998092651" id="edge28" class="relation" marker-start="url(#aggregationStart)"></path><path d="M2845.664711671717,673L2852.453927918976,683.8333333333334C2859.243144166236,694.6666666666666,2872.821576660755,716.3333333333334,2879.7931434386605,731.3333333333334C2886.764710216565,746.3333333333334,2887.1294112778573,754.6666666666666,2887.3117618085034,758.8333333333334L2887.4941123391495,763" id="edge29" class="relation" marker-start="url(#aggregationStart)"></path><path d="M3419.3500003814697,630.225230395465L3818.7749985059104,648.1876919962209C4218.199996630351,666.1501535969767,5017.0499928792315,702.0750767984883,5416.474991003673,756.7875383992441C5815.899989128113,811.5,5815.899989128113,885,5815.899989128113,958.5C5815.899989128113,1032,5815.899989128113,1105.5,5815.899989128113,1155.5C5815.899989128113,1205.5,5815.899989128113,1232,5815.899989128113,1258.5C5815.899989128113,1285,5815.899989128113,1311.5,5815.899989128113,1344.8333333333333C5815.899989128113,1378.1666666666667,5815.899989128113,1418.3333333333333,5815.899989128113,1458.5C5815.899989128113,1498.6666666666667,5815.899989128113,1538.8333333333333,5815.899989128113,1572.3333333333333C5815.899989128113,1605.8333333333333,5815.899989128113,1632.6666666666667,5815.899989128113,1659.5C5815.899989128113,1686.3333333333333,5815.899989128113,1713.1666666666667,5565.516656796138,1734.8686639109435C5315.133324464162,1756.5706611552203,4814.366659800212,1773.1413223104403,4563.983327468236,1781.4266528880505L4313.599995136261,1789.7119834656608" id="edge30" class="relation" marker-end="url(#aggregationEnd)"></path><path d="M3419.3500003814697,630.3272323714732L3803.999998251597,648.2726936428943C4188.649996121724,666.2181549143155,4957.9499918619795,702.1090774571577,5332.948515594681,751.0545387285789C5707.947039327383,800,5688.644091052533,862,5678.992616915108,893L5669.341142777683,924" id="edge31" class="relation" marker-start="url(#aggregationStart)"></path><path d="M2447.5500049591064,374.23268781029657L2923.583334763845,398.0272398419138C3399.616664568583,421.821791873531,4351.68332417806,469.4108959367655,4827.716653982799,511.62211463504946C5303.749983787537,553.8333333333334,5303.749983787537,590.6666666666666,5303.749983787537,627.5C5303.749983787537,664.3333333333334,5303.749983787537,701.1666666666666,5353.6381927261,750.5833333333334C5403.526401664664,800,5503.302819541793,862,5553.191028480356,893L5603.0792374189205,924" id="edge32" class="relation" marker-end="url(#aggregationEnd)"></path><path d="M1996.8500080108643,631.0279735095605L2485.525003592173,648.8566445913004C2974.1999991734824,666.6853156730403,3951.5499903361,702.3426578365202,4440.224985917409,756.9213289182602C4928.899981498718,811.5,4928.899981498718,885,4928.899981498718,958.5C4928.899981498718,1032,4928.899981498718,1105.5,4928.899981498718,1150.5833333333333C4928.899981498718,1195.6666666666667,4928.899981498718,1212.3333333333333,4928.899981498718,1220.6666666666667L4928.899981498718,1229" id="edge33" class="relation" marker-start="url(#aggregationStart)"></path><path d="M3298.1500034332275,641.1006904234125L3226.1916710535684,657.2505753528438C3154.2333386739097,673.400460282275,3010.3166739145913,705.7002301411376,2938.918621014936,726.0167817372354C2867.52056811528,746.3333333333334,2868.6411270752874,754.6666666666666,2869.2014065552908,758.8333333333334L2869.7616860352946,763" id="edge34" class="relation" marker-start="url(#aggregationStart)"></path><path d="M3298.1500034332275,629.7266816827703L2807.0333360036216,647.772234735642C2315.916668574015,665.8177877885136,1333.683333714803,701.9088938942568,820.9416701782642,749.7377804076183C308.20000664172534,797.5666669209799,264.9500144278598,857.1333338419596,243.32501832092703,886.9166673024496L221.70002221399426,916.7000007629395" id="edge35" class="relation" marker-end="url(#dependencyEnd)"></path><path d="M3298.1500034332275,630.1302289278357L2883.9333362579346,648.1085241065297C2469.7166690826416,666.0868192852238,1641.2833347320557,702.0434096426119,1227.0666675567627,756.7717048213059C812.8500003814697,811.5,812.8500003814697,885,812.8500003814697,958.5C812.8500003814697,1032,812.8500003814697,1105.5,812.8500003814697,1151.8666667938232C812.8500003814697,1198.2333335876465,812.8500003814697,1217.466667175293,812.8500003814697,1227.0833339691162L812.8500003814697,1236.7000007629395" id="edge36" class="relation" marker-start="url(#aggregationStart)"></path><path d="M2447.5500049591064,391.8703275777864L2574.716671625773,412.7252729814886C2701.88333829244,433.5802183851909,2956.216671625773,475.2901091925955,3104.551573108023,511.9283878978419C3252.8864745902724,548.5666666030884,3295.222944221439,580.1333332061768,3316.391179037022,595.916666507721L3337.5594138526053,611.6999998092651" id="edge37" class="relation" marker-end="url(#aggregationEnd)"></path><path d="M2138.150011062622,377.5789195604021L1813.6833426157634,400.81576630033504C1489.2166741689045,424.052613040268,840.2833372751871,470.526306520134,515.8166688283285,512.1798199267337C191.35000038146973,553.8333333333334,191.35000038146973,590.6666666666666,191.35000038146973,627.5C191.35000038146973,664.3333333333334,191.35000038146973,701.1666666666666,191.35000038146973,749.3666667938232C191.35000038146973,797.5666669209799,191.35000038146973,857.1333338419596,191.35000038146973,886.9166673024496L191.35000038146973,916.7000007629395" id="edge38" class="relation" marker-end="url(#dependencyEnd)"></path><path d="M2138.150011062622,379.5704257570893L1867.0500087738037,402.4753547975744C1595.9500064849854,425.38028383805954,1053.7500019073486,471.1901419190297,782.6499996185303,512.5117376261816C511.5499973297119,553.8333333333334,511.5499973297119,590.6666666666666,511.5499973297119,627.5C511.5499973297119,664.3333333333334,511.5499973297119,701.1666666666666,511.5499973297119,756.3333333333334C511.5499973297119,811.5,511.5499973297119,885,511.5499973297119,958.5C511.5499973297119,1032,511.5499973297119,1105.5,504.3182361770726,1148.53333346049C497.08647502443324,1191.5666669209797,482.6229527191546,1204.1333338419597,475.3911915665153,1210.4166673024495L468.15943041387595,1216.7000007629395" id="edge39" class="relation" marker-end="url(#dependencyEnd)"></path><path d="M3080.3500022888184,1040.3987312660608L3132.3333355585733,1063.4989427217174C3184.3166688283286,1086.599154177374,3288.2833353678384,1132.799577088687,3340.2666686375937,1169.1497885443434C3392.2500019073486,1205.5,3392.2500019073486,1232,3392.2500019073486,1258.5C3392.2500019073486,1285,3392.2500019073486,1311.5,3392.2500019073486,1344.8333333333333C3392.2500019073486,1378.1666666666667,3392.2500019073486,1418.3333333333333,3392.2500019073486,1458.5C3392.2500019073486,1498.6666666666667,3392.2500019073486,1538.8333333333333,3215.558334350586,1571.530225103199C3038.8666667938232,1604.2271168730647,2685.483331680298,1629.4542337461296,2508.791664123535,1642.0677921826618L2332.0999965667725,1654.6813506191943" id="edge40" class="relation" marker-end="url(#dependencyEnd)"></path><path d="M3242.5500049591064,1313L3242.5500049591064,1317.1666666666667C3242.5500049591064,1321.3333333333333,3242.5500049591064,1329.6666666666667,3242.5500049591064,1353.9166666666667C3242.5500049591064,1378.1666666666667,3242.5500049591064,1418.3333333333333,3242.5500049591064,1458.5C3242.5500049591064,1498.6666666666667,3242.5500049591064,1538.8333333333333,3090.8083368937173,1571.407289064988C2939.0666688283286,1603.9812447966426,2635.5833326975503,1628.9624895932855,2483.8416646321616,1641.4531119916066L2332.0999965667725,1653.9437343899278" id="edge41" class="relation" marker-end="url(#dependencyEnd)"></path><path d="M3127.8500080108643,1264.025617177304L2871.9250071843467,1276.3546809810866C2616.0000063578286,1288.6837447848693,2104.1500047047934,1313.3418723924347,1752.758337020874,1342.4328964718027C1401.3666693369548,1371.523920551171,1210.4333356221516,1405.047841102342,1114.9666687647502,1421.8098013779274L1019.5000019073486,1438.571761653513" id="edge42" class="relation" marker-end="url(#dependencyEnd)"></path><path d="M4740.099981784821,979.57720615488L4809.79998199145,1012.8143384624C4879.499982198079,1046.0514707699201,5018.899982611339,1112.52573538496,5088.599982817967,1154.9295343591466C5158.299983024597,1197.3333333333333,5158.299983024597,1215.6666666666667,5158.299983024597,1224.8333333333333L5158.299983024597,1234" id="edge43" class="relation" marker-start="url(#aggregationStart)"></path><path d="M4651.699980258942,966.704133435362L4461.074983358383,1002.0867778628017C4270.449986457825,1037.4694222902415,3889.1999926567078,1108.2347111451206,3698.5749957561493,1151.567355699717C3507.949998855591,1194.9000002543132,3507.949998855591,1210.8000005086262,3507.949998855591,1218.750000635783L3507.949998855591,1226.7000007629395" id="edge44" class="relation" marker-end="url(#dependencyEnd)"></path><path d="M476.5499973297119,641.3304650639224L622.2833309173584,657.4420542199354C768.0166645050049,673.5536433759482,1059.4833316802979,705.7768216879741,1205.2166652679443,758.638410843987C1350.9499988555908,811.5,1350.9499988555908,885,1350.9499988555908,958.5C1350.9499988555908,1032,1350.9499988555908,1105.5,1350.9499988555908,1155.5C1350.9499988555908,1205.5,1350.9499988555908,1232,1350.9499988555908,1258.5C1350.9499988555908,1285,1350.9499988555908,1311.5,1295.7083326975505,1339.7103794082466C1240.46666653951,1367.920758816493,1129.9833342234294,1397.8415176329863,1074.741668065389,1412.801897041233L1019.5000019073486,1427.7622764494795" id="edge45" class="relation" marker-end="url(#dependencyEnd)"></path><path d="M233.13189997608305,692L219.06824998006923,699.6666666666666C205.00459998405537,707.3333333333334,176.8772999920277,722.6666666666666,168.56770902902204,760.1166667938232C160.2581180660164,797.5666669209799,171.76623613203284,857.1333338419596,177.52029516504103,886.9166673024496L183.27435419804925,916.7000007629395" id="edge46" class="relation" marker-end="url(#dependencyEnd)"></path><path d="M206.25013587467254,1000.2999992370605L216.8667797048256,1030.0833326975505C227.48342353497864,1059.8666661580403,248.71671119528472,1119.4333330790203,271.19660462080793,1155.5C293.6764980463312,1191.5666669209797,317.40299723707153,1204.1333338419597,329.2662468324417,1210.4166673024495L341.1294964278119,1216.7000007629395" id="edge47" class="relation" marker-end="url(#dependencyEnd)"></path><path d="M4201.659844077192,1818.599998474121L4194.066536556154,1822.7666651407878C4186.473229035114,1826.9333318074544,4171.286613993037,1835.2666651407878,4163.693306471997,1843.599998474121C4156.099998950958,1851.9333318074544,4156.099998950958,1860.2666651407878,4156.099998950958,1864.4333318074544L4156.099998950958,1868.599998474121" id="edge48" class="relation" marker-start="url(#aggregationStart)"></path><path d="M4299.3401492470875,1818.599998474121L4306.933456768126,1822.7666651407878C4314.526764289166,1826.9333318074544,4329.713379331243,1835.2666651407878,4337.306686852283,1843.599998474121C4344.8999943733215,1851.9333318074544,4344.8999943733215,1860.2666651407878,4344.8999943733215,1864.4333318074544L4344.8999943733215,1868.599998474121" id="edge49" class="relation" marker-start="url(#aggregationStart)"></path><path d="M906.0000019073486,1554L906.0000019073486,1558.1666666666667C906.0000019073486,1562.3333333333333,906.0000019073486,1570.6666666666667,1121.183334350586,1587.58341306966C1336.3666667938232,1604.5001594726534,1766.7333316802979,1630.0003189453066,1981.9166641235352,1642.7503986816334L2197.0999965667725,1655.5004784179598" id="edge50" class="relation" marker-end="url(#dependencyEnd)"></path><path d="M2264.5999965667725,1706.2999992370605L2264.5999965667725,1711.9166660308838C2264.5999965667725,1717.533332824707,2264.5999965667725,1728.7666664123535,2585.066663503647,1742.7423508314532C2905.5333304405212,1756.7180352505527,3546.46666431427,1773.4360705011052,3866.9333312511444,1781.7950881263816L4187.399998188019,1790.1541057516579" id="edge51" class="relation" marker-end="url(#dependencyEnd)"></path><path d="M1219.2500019073486,1283L1219.2500019073486,1292.1666666666667C1219.2500019073486,1301.3333333333333,1219.2500019073486,1319.6666666666667,1185.958335240682,1341.6398643256186C1152.6666685740154,1363.6130619845705,1086.083335240682,1389.2261239691409,1052.7916685740154,1402.0326549614258L1019.5000019073486,1414.8391859537112" id="edge52" class="relation" marker-end="url(#dependencyEnd)"></path><path d="M503.149995803833,1279.0296760028791L542.9333305358887,1288.8580633357326C582.7166652679443,1298.686450668586,662.2833347320557,1318.343225334293,710.5083357493082,1334.3685106357716C758.7333367665609,1350.3937959372502,775.6166693369547,1362.7875918745003,784.0583356221517,1368.9844898431254L792.5000019073486,1375.1813878117505" id="edge53" class="relation" marker-end="url(#dependencyEnd)"></path><path d="M347.7806920772528,1300.2999992370605L336.91724346128893,1306.5833326975505C326.0537948453251,1312.8666661580403,304.3268976133974,1325.4333330790203,293.46344899743355,1351.7999998728435C282.6000003814697,1378.1666666666667,282.6000003814697,1418.3333333333333,282.6000003814697,1458.5C282.6000003814697,1498.6666666666667,282.6000003814697,1538.8333333333333,282.6000003814697,1572.3333333333333C282.6000003814697,1605.8333333333333,282.6000003814697,1632.6666666666667,282.6000003814697,1659.5C282.6000003814697,1686.3333333333333,282.6000003814697,1713.1666666666667,933.4000000158945,1735.0793739382232C1584.1999996503193,1756.9920812097796,2885.799998919169,1773.9841624195587,3536.599998553594,1782.4802030244484L4187.399998188019,1790.9762436293381" id="edge54" class="relation" marker-end="url(#dependencyEnd)"></path><path d="M336.9499988555908,1235.0145753949325L303.91666571299237,1225.6788128291105C270.88333257039386,1216.3430502632884,204.81666628519693,1197.6715251316443,178.8881102463772,1158.5524291053323C152.95955420755743,1119.4333330790203,167.1691084151149,1059.8666661580403,174.27388551889362,1030.0833326975505L181.37866262267235,1000.2999992370605" id="edge55" class="relation" marker-end="url(#dependencyEnd)"></path><path d="M3177.5624538041743,191L3179.727045663329,195.16666666666666C3181.891637522485,199.33333333333334,3186.2208212407954,207.66666666666666,3188.385413099951,236.91666666666666C3190.5500049591064,266.1666666666667,3190.5500049591064,316.3333333333333,3190.5500049591064,366.5C3190.5500049591064,416.6666666666667,3190.5500049591064,466.8333333333333,3214.574951684471,507.6999999682109C3238.5998984098364,548.5666666030884,3286.649791860566,580.1333332061768,3310.6747385859308,595.916666507721L3334.699685311296,611.6999998092651" id="edge56" class="relation dashed-line" marker-start="url(#dependencyStart)"></path><path d="M3009.250011444092,112.62770880820199L2889.850010871887,129.856424006835C2770.4500102996826,147.08513920546798,2531.6500091552734,181.542569602734,2412.250008583069,211.271284801367C2292.8500080108643,241,2292.8500080108643,266,2292.8500080108643,278.5L2292.8500080108643,291" id="edge57" class="relation dashed-line" marker-start="url(#dependencyStart)"></path><path d="M3009.250011444092,103.64077948470498L2736.2000093460083,122.36731623725416C2463.150007247925,141.0938529898033,1917.0500030517578,178.54692649490167,1644.0000009536743,222.35679658078416C1370.9499988555908,266.1666666666667,1370.9499988555908,316.3333333333333,1370.9499988555908,366.5C1370.9499988555908,416.6666666666667,1370.9499988555908,466.8333333333333,1370.9499988555908,510.3333333333333C1370.9499988555908,553.8333333333334,1370.9499988555908,590.6666666666666,1370.9499988555908,627.5C1370.9499988555908,664.3333333333334,1370.9499988555908,701.1666666666666,1594.4166650772095,751.8922966075725C1817.8833312988281,802.6179265484781,2264.8166637420654,867.2358530969562,2488.283329963684,899.5448163711953L2711.7499961853027,931.8537796454344" id="edge58" class="relation dashed-line" marker-start="url(#dependencyStart)"></path><path d="M3246.650005340576,100.4677345533741L3706.7416698137918,119.72311212781176C4166.833334287007,138.9784897022494,5087.016663233439,177.4892448511247,5547.108327706655,221.82795575889568C6007.199992179871,266.1666666666667,6007.199992179871,316.3333333333333,6007.199992179871,366.5C6007.199992179871,416.6666666666667,6007.199992179871,466.8333333333333,6007.199992179871,510.3333333333333C6007.199992179871,553.8333333333334,6007.199992179871,590.6666666666666,6007.199992179871,627.5C6007.199992179871,664.3333333333334,6007.199992179871,701.1666666666666,6007.199992179871,756.3333333333334C6007.199992179871,811.5,6007.199992179871,885,6007.199992179871,958.5C6007.199992179871,1032,6007.199992179871,1105.5,6007.199992179871,1155.5C6007.199992179871,1205.5,6007.199992179871,1232,6007.199992179871,1258.5C6007.199992179871,1285,6007.199992179871,1311.5,6007.199992179871,1344.8333333333333C6007.199992179871,1378.1666666666667,6007.199992179871,1418.3333333333333,6007.199992179871,1458.5C6007.199992179871,1498.6666666666667,6007.199992179871,1538.8333333333333,6007.199992179871,1563.0833333333333C6007.199992179871,1587.3333333333333,6007.199992179871,1595.6666666666667,6007.199992179871,1599.8333333333333L6007.199992179871,1604" id="edge59" class="relation dashed-line" marker-start="url(#dependencyStart)"></path><path d="M3009.250011444092,109.457210840684L2858.2333447138467,127.21434236723667C2707.216677983602,144.97147389378935,2405.183344523112,180.48573694689466,2254.166677792867,223.32620180678066C2103.150011062622,266.1666666666667,2103.150011062622,316.3333333333333,2103.150011062622,366.5C2103.150011062622,416.6666666666667,2103.150011062622,466.8333333333333,2207.500009536743,508.0660713649868C2311.8500080108643,549.2988093966402,2520.5500049591064,581.5976187932805,2624.9000034332275,597.7470234916005L2729.2500019073486,613.8964281899207" id="edge60" class="relation dashed-line" marker-start="url(#dependencyStart)"></path><path d="M3246.650005340576,108.91588887010035L3404.558335622152,126.76324072508362C3562.466665903727,144.61059258006688,3878.2833264668784,180.30529629003345,4036.1916567484536,223.23598147835006C4194.099987030029,266.1666666666667,4194.099987030029,316.3333333333333,4194.099987030029,366.5C4194.099987030029,416.6666666666667,4194.099987030029,466.8333333333333,4194.099987030029,510.3333333333333C4194.099987030029,553.8333333333334,4194.099987030029,590.6666666666666,4194.099987030029,627.5C4194.099987030029,664.3333333333334,4194.099987030029,701.1666666666666,4270.366652568181,753.0962866065762C4346.633318106334,805.025906546486,4499.166649182637,872.0518130929719,4575.43331472079,905.5647663662148L4651.699980258942,939.0777196394578" id="edge61" class="relation dashed-line" marker-start="url(#dependencyStart)"></path><path d="M756.3893740542429,1280.2999992370605L731.4828121569171,1289.9166660308838C706.5762502595913,1299.533332824707,656.7631264649398,1318.7666664123535,620.0501052242563,1344C583.337083983573,1369.2333335876465,559.7241652968579,1400.466667175293,547.9177059535004,1416.0833339691162L536.1112466101429,1431.7000007629395" id="edge62" class="relation" marker-end="url(#dependencyEnd)"></path><path d="M932.7500019073486,1269.8270487064449L862.6333351135254,1281.1892072553708C792.5166683197021,1292.5513658042967,652.2833347320557,1315.2756829021482,582.659143885854,1342.2545082448974C513.0349530396521,1369.2333335876465,514.019904934895,1400.466667175293,514.5123808825165,1416.0833339691162L515.0048568301379,1431.7000007629395" id="edge63" class="relation" marker-end="url(#dependencyEnd)"></path><path d="M587.127987054309,1280.2999992370605L571.2816560693257,1289.9166660308838C555.4353250843424,1299.533332824707,523.7426631143758,1318.7666664123535,510.98078596810495,1344C498.2189088218341,1369.2333335876465,504.38781649925903,1400.466667175293,507.47227033797145,1416.0833339691162L510.5567241766839,1431.7000007629395" id="edge64" class="relation" marker-end="url(#dependencyEnd)"></path><path d="M139.8000030517578,1279.910326093786L171.40833600362143,1289.5919384114884C203.01666895548502,1299.2735507291907,266.2333348592122,1318.6367753645952,322.4583346048991,1344.2320589503952C378.68333435058594,1369.827342536195,427.9166679382324,1401.6546850723898,452.53333473205566,1417.5683563404873L477.1500015258789,1433.4820276085848" id="edge65" class="relation" marker-end="url(#dependencyEnd)"></path><path d="M106.14999961853027,643.3000001907349L106.14999961853027,659.083333492279C106.14999961853027,674.8666667938232,106.14999961853027,706.4333333969116,117.6581176845467,752.0000001589457C129.16623575056312,797.5666669209799,152.18247188259593,857.1333338419596,163.69058994861237,886.9166673024496L175.19870801462878,916.7000007629395" id="edge66" class="relation dashed-line" marker-end="url(#aggregationEnd)"></path><path d="M932.7500019073486,1278.2900645883403L897.6000022888184,1288.2417204902836C862.4500026702881,1298.1933763922268,792.1500034332275,1318.0966881961133,768.7750034332275,1335.7534077508853C745.4000034332275,1353.4101273056574,768.9500026702881,1368.8202546113146,780.7250022888184,1376.525318264143L792.5000019073486,1384.2303819169717" id="edge67" class="relation dashed-line" marker-end="url(#aggregationEnd)"></path><path d="M624.1194327190087,1280.2999992370605L624.5911943775553,1289.9166660308838C625.0629560361018,1299.533332824707,626.006479353195,1318.7666664123535,654.0699075512516,1340.298028877566C682.1333357493082,1361.8293913427785,737.3166688283285,1385.6587826855568,764.9083353678385,1397.573478356946L792.5000019073486,1409.4881740283352" id="edge68" class="relation dashed-line" marker-end="url(#aggregationEnd)"></path><path d="M5658.599986076355,993L5658.599986076355,1024C5658.599986076355,1055,5658.599986076355,1117,5658.599986076355,1161.25C5658.599986076355,1205.5,5658.599986076355,1232,5658.599986076355,1258.5C5658.599986076355,1285,5658.599986076355,1311.5,5513.5083201726275,1343.8964116357902C5368.416654268901,1376.2928232715803,5078.233322461446,1414.5856465431607,4933.141656557719,1433.7320581789509L4788.049990653992,1452.878469814741" id="edge69" class="relation" marker-end="url(#extensionEnd)"></path><path d="M5592.599986076355,1274.3000001907349L5592.599986076355,1284.9166668256123C5592.599986076355,1295.53333346049,5592.599986076355,1316.7666667302449,5458.5083201726275,1346.4567510421039C5324.416654268901,1376.1468353539628,5056.233322461446,1414.2936707079252,4922.141656557719,1433.3670883849065L4788.049990653992,1452.4405060618878" id="edge70" class="relation" marker-end="url(#extensionEnd)"></path><path d="M5411.699984550476,1283L5411.699984550476,1292.1666666666667C5411.699984550476,1301.3333333333333,5411.699984550476,1319.6666666666667,5307.758318901062,1347.632539010583C5203.816653251648,1375.5984113544994,4995.93332195282,1413.1968227089992,4891.991656303406,1431.996028386249L4788.049990653992,1450.7952340634988" id="edge71" class="relation" marker-end="url(#extensionEnd)"></path><path d="M5158.299983024597,1283L5158.299983024597,1292.1666666666667C5158.299983024597,1301.3333333333333,5158.299983024597,1319.6666666666667,5096.59165096283,1346.8443642395516C5034.883318901062,1374.0220618124367,4911.466654777527,1410.0441236248735,4849.758322715759,1428.055154531092L4788.049990653992,1446.0661854373104" id="edge72" class="relation" marker-end="url(#extensionEnd)"></path><path d="M4928.899981498718,1288L4928.899981498718,1296.3333333333333C4928.899981498718,1304.6666666666667,4928.899981498718,1321.3333333333333,4903.60265884253,1346.2833333015442C4878.305336186342,1371.2333332697551,4827.710690873965,1404.46666653951,4802.413368217777,1421.0833331743877L4777.116045561589,1437.6999998092651" id="edge73" class="relation" marker-end="url(#extensionEnd)"></path><path d="M3682.049997329712,1274.3000001907349L3682.049997329712,1284.9166668256123C3682.049997329712,1295.53333346049,3682.049997329712,1316.7666667302449,3852.1833287874856,1346.6621246134648C4022.3166602452598,1376.5575824966845,4362.583323160808,1415.115164993369,4532.716654618581,1434.3939562417115L4702.849986076355,1453.6727474900538" id="edge74" class="relation" marker-end="url(#extensionEnd)"></path><path d="M4702.849986076355,1463.0465659864194L4521.7749883333845,1482.3721383220163C4340.699990590413,1501.697710657613,3978.5499951044717,1540.3488553288064,3797.474997361501,1570.4577609659475C3616.3999996185303,1600.5666666030884,3616.3999996185303,1622.1333332061768,3616.3999996185303,1632.916666507721L3616.3999996185303,1643.6999998092651" id="edge75" class="relation" marker-end="url(#dependencyEnd)"></path><path d="M4788.049990653992,1463.9784421299921L4937.116656939189,1483.1487017749932C5086.183323224385,1502.3189614199946,5384.31665579478,1540.6594807099973,5533.383322079976,1569.7797403232096C5682.449988365173,1598.8999999364216,5682.449988365173,1618.7999998728435,5682.449988365173,1628.7499998410542L5682.449988365173,1638.6999998092651" id="edge76" class="relation" marker-end="url(#dependencyEnd)"></path></svg>